<svg version="1.1" viewBox="0.0 0.0 600.0 371.0" fill="none" stroke="none" stroke-linecap="square" stroke-miterlimit="10" width="600" height="371" xmlns:xlink="http://www.w3.org/1999/xlink" xmlns="http://www.w3.org/2000/svg"><path fill="#ffffff" fill-opacity="0.0" d="M0 0L600.0 0L600.0 371.0L0 371.0L0 0Z" fill-rule="nonzero"/><path stroke="#333333" stroke-width="1.0" stroke-linecap="butt" d="M45.5 274.5L581.5 274.5" fill-rule="nonzero"/><path stroke="#cccccc" stroke-width="1.0" stroke-linecap="butt" d="M45.5 236.5L581.5 236.5" fill-rule="nonzero"/><path stroke="#cccccc" stroke-width="1.0" stroke-linecap="butt" d="M45.5 199.5L581.5 199.5" fill-rule="nonzero"/><path stroke="#cccccc" stroke-width="1.0" stroke-linecap="butt" d="M45.5 162.5L581.5 162.5" fill-rule="nonzero"/><path stroke="#cccccc" stroke-width="1.0" stroke-linecap="butt" d="M45.5 124.5L581.5 124.5" fill-rule="nonzero"/><path stroke="#cccccc" stroke-width="1.0" stroke-linecap="butt" d="M45.5 87.5L581.5 87.5" fill-rule="nonzero"/><path stroke="#cccccc" stroke-width="1.0" stroke-linecap="butt" d="M45.5 49.5L581.5 49.5" fill-rule="nonzero"/><clipPath id="id_0"><path d="M45.55 49.916668L581.45 49.916668L581.45 274.3251L45.55 274.3251L45.55 49.916668Z" clip-rule="nonzero"/></clipPath><path stroke="#4285f4" stroke-width="2.0" stroke-linecap="butt" clip-path="url(#id_0)" d="M72.345 255.6244L125.935 236.9237L179.525 218.22299L233.115 199.5223L286.705 180.8216L340.295 143.42018L393.885 106.018776L447.475 87.31808L501.065 68.61737L554.655 49.916668" fill-rule="nonzero"/><path stroke="#ea4335" stroke-width="2.0" stroke-linecap="butt" clip-path="url(#id_0)" d="M72.345 218.22299L125.935 218.22299L179.525 236.9237L233.115 218.22299L286.705 255.6244L340.295 255.6244L393.885 255.6244L447.475 255.6244L501.065 236.9237L554.655 218.22299" fill-rule="nonzero"/><path fill="#000000" fill-opacity="0.0" clip-path="url(#id_0)" d="M75.345 255.6244C75.345 257.28125 74.001854 258.6244 72.345 258.6244C70.68815 258.6244 69.345 257.28125 69.345 255.6244C69.345 253.96754 70.68815 252.6244 72.345 252.6244C74.001854 252.6244 75.345 253.96754 75.345 255.6244Z" fill-rule="nonzero"/><path fill="#000000" fill-opacity="0.0" clip-path="url(#id_0)" d="M128.935 236.9237C128.935 238.58055 127.59186 239.9237 125.935 239.9237C124.278145 239.9237 122.935 238.58055 122.935 236.9237C122.935 235.26685 124.278145 233.9237 125.935 233.9237C127.59186 233.9237 128.935 235.26685 128.935 236.9237Z" fill-rule="nonzero"/><path fill="#000000" fill-opacity="0.0" clip-path="url(#id_0)" d="M182.525 218.22299C182.525 219.87985 181.18185 221.22299 179.525 221.22299C177.86815 221.22299 176.525 219.87985 176.525 218.22299C176.525 216.56615 177.86815 215.22299 179.525 215.22299C181.18185 215.22299 182.525 216.56615 182.525 218.22299Z" fill-rule="nonzero"/><path fill="#000000" fill-opacity="0.0" clip-path="url(#id_0)" d="M236.115 199.5223C236.115 201.17915 234.77185 202.5223 233.115 202.5223C231.45815 202.5223 230.115 201.17915 230.115 199.5223C230.115 197.86543 231.45815 196.5223 233.115 196.5223C234.77185 196.5223 236.115 197.86543 236.115 199.5223Z" fill-rule="nonzero"/><path fill="#000000" fill-opacity="0.0" clip-path="url(#id_0)" d="M289.705 180.8216C289.705 182.47844 288.36185 183.8216 286.705 183.8216C285.04816 183.8216 283.705 182.47844 283.705 180.8216C283.705 179.16473 285.04816 177.8216 286.705 177.8216C288.36185 177.8216 289.705 179.16473 289.705 180.8216Z" fill-rule="nonzero"/><path fill="#000000" fill-opacity="0.0" clip-path="url(#id_0)" d="M343.295 143.42018C343.295 145.07704 341.95184 146.42018 340.295 146.42018C338.63815 146.42018 337.295 145.07704 337.295 143.42018C337.295 141.76334 338.63815 140.42018 340.295 140.42018C341.95184 140.42018 343.295 141.76334 343.295 143.42018Z" fill-rule="nonzero"/><path fill="#000000" fill-opacity="0.0" clip-path="url(#id_0)" d="M396.885 106.018776C396.885 107.67563 395.54184 109.018776 393.885 109.018776C392.22815 109.018776 390.885 107.67563 390.885 106.018776C390.885 104.36192 392.22815 103.018776 393.885 103.018776C395.54184 103.018776 396.885 104.36192 396.885 106.018776Z" fill-rule="nonzero"/><path fill="#000000" fill-opacity="0.0" clip-path="url(#id_0)" d="M450.475 87.31808C450.475 88.97493 449.13187 90.31808 447.475 90.31808C445.81815 90.31808 444.475 88.97493 444.475 87.31808C444.475 85.66122 445.81815 84.31808 447.475 84.31808C449.13187 84.31808 450.475 85.66122 450.475 87.31808Z" fill-rule="nonzero"/><path fill="#000000" fill-opacity="0.0" clip-path="url(#id_0)" d="M504.065 68.61737C504.065 70.27422 502.72186 71.61737 501.065 71.61737C499.40814 71.61737 498.065 70.27422 498.065 68.61737C498.065 66.96052 499.40814 65.61737 501.065 65.61737C502.72186 65.61737 504.065 66.96052 504.065 68.61737Z" fill-rule="nonzero"/><path fill="#000000" fill-opacity="0.0" clip-path="url(#id_0)" d="M557.655 49.916668C557.655 51.57352 556.3118 52.916668 554.655 52.916668C552.99817 52.916668 551.655 51.57352 551.655 49.916668C551.655 48.25981 552.99817 46.916668 554.655 46.916668C556.3118 46.916668 557.655 48.25981 557.655 49.916668Z" fill-rule="nonzero"/><path fill="#000000" fill-opacity="0.0" clip-path="url(#id_0)" d="M75.345 218.22299C75.345 219.87985 74.001854 221.22299 72.345 221.22299C70.68815 221.22299 69.345 219.87985 69.345 218.22299C69.345 216.56615 70.68815 215.22299 72.345 215.22299C74.001854 215.22299 75.345 216.56615 75.345 218.22299Z" fill-rule="nonzero"/><path fill="#000000" fill-opacity="0.0" clip-path="url(#id_0)" d="M128.935 218.22299C128.935 219.87985 127.59186 221.22299 125.935 221.22299C124.278145 221.22299 122.935 219.87985 122.935 218.22299C122.935 216.56615 124.278145 215.22299 125.935 215.22299C127.59186 215.22299 128.935 216.56615 128.935 218.22299Z" fill-rule="nonzero"/><path fill="#000000" fill-opacity="0.0" clip-path="url(#id_0)" d="M182.525 236.9237C182.525 238.58055 181.18185 239.9237 179.525 239.9237C177.86815 239.9237 176.525 238.58055 176.525 236.9237C176.525 235.26685 177.86815 233.9237 179.525 233.9237C181.18185 233.9237 182.525 235.26685 182.525 236.9237Z" fill-rule="nonzero"/><path fill="#000000" fill-opacity="0.0" clip-path="url(#id_0)" d="M236.115 218.22299C236.115 219.87985 234.77185 221.22299 233.115 221.22299C231.45815 221.22299 230.115 219.87985 230.115 218.22299C230.115 216.56615 231.45815 215.22299 233.115 215.22299C234.77185 215.22299 236.115 216.56615 236.115 218.22299Z" fill-rule="nonzero"/><path fill="#000000" fill-opacity="0.0" clip-path="url(#id_0)" d="M289.705 255.6244C289.705 257.28125 288.36185 258.6244 286.705 258.6244C285.04816 258.6244 283.705 257.28125 283.705 255.6244C283.705 253.96754 285.04816 252.6244 286.705 252.6244C288.36185 252.6244 289.705 253.96754 289.705 255.6244Z" fill-rule="nonzero"/><path fill="#000000" fill-opacity="0.0" clip-path="url(#id_0)" d="M343.295 255.6244C343.295 257.28125 341.95184 258.6244 340.295 258.6244C338.63815 258.6244 337.295 257.28125 337.295 255.6244C337.295 253.96754 338.63815 252.6244 340.295 252.6244C341.95184 252.6244 343.295 253.96754 343.295 255.6244Z" fill-rule="nonzero"/><path fill="#000000" fill-opacity="0.0" clip-path="url(#id_0)" d="M396.885 255.6244C396.885 257.28125 395.54184 258.6244 393.885 258.6244C392.22815 258.6244 390.885 257.28125 390.885 255.6244C390.885 253.96754 392.22815 252.6244 393.885 252.6244C395.54184 252.6244 396.885 253.96754 396.885 255.6244Z" fill-rule="nonzero"/><path fill="#000000" fill-opacity="0.0" clip-path="url(#id_0)" d="M450.475 255.6244C450.475 257.28125 449.13187 258.6244 447.475 258.6244C445.81815 258.6244 444.475 257.28125 444.475 255.6244C444.475 253.96754 445.81815 252.6244 447.475 252.6244C449.13187 252.6244 450.475 253.96754 450.475 255.6244Z" fill-rule="nonzero"/><path fill="#000000" fill-opacity="0.0" clip-path="url(#id_0)" d="M504.065 236.9237C504.065 238.58055 502.72186 239.9237 501.065 239.9237C499.40814 239.9237 498.065 238.58055 498.065 236.9237C498.065 235.26685 499.40814 233.9237 501.065 233.9237C502.72186 233.9237 504.065 235.26685 504.065 236.9237Z" fill-rule="nonzero"/><path fill="#000000" fill-opacity="0.0" clip-path="url(#id_0)" d="M557.655 218.22299C557.655 219.87985 556.3118 221.22299 554.655 221.22299C552.99817 221.22299 551.655 219.87985 551.655 218.22299C551.655 216.56615 552.99817 215.22299 554.655 215.22299C556.3118 215.22299 557.655 216.56615 557.655 218.22299Z" fill-rule="nonzero"/><path fill="#ffffff" d="M33.05 274.09073Q33.05 272.55948 33.3625 271.6376Q33.675 270.7001 34.284374 270.2001Q34.909374 269.7001 35.846874 269.7001Q36.534374 269.7001 37.05 269.98135Q37.58125 270.2626 37.925 270.79385Q38.26875 271.30948 38.45625 272.05948Q38.64375 272.80948 38.64375 274.09073Q38.64375 275.60635 38.33125 276.52823Q38.034374 277.4501 37.409374 277.96573Q36.8 278.46573 35.846874 278.46573Q34.6125 278.46573 33.89375 277.5751Q33.05 276.5126 33.05 274.09073ZM34.128124 274.09073Q34.128124 276.2001 34.628124 276.90323Q35.128124 277.60635 35.846874 277.60635Q36.58125 277.60635 37.065624 276.90323Q37.565624 276.2001 37.565624 274.09073Q37.565624 271.96573 37.065624 271.27823Q36.58125 270.5751 35.83125 270.5751Q35.1125 270.5751 34.675 271.18448Q34.128124 271.96573 34.128124 274.09073Z" fill-rule="nonzero"/><path fill="#ffffff" d="M38.596874 239.90808L38.596874 240.9237L32.909374 240.9237Q32.909374 240.5487 33.034374 240.18933Q33.253124 239.6112 33.721874 239.0487Q34.20625 238.4862 35.1125 237.75183Q36.51875 236.59558 37.003124 235.9237Q37.503124 235.25183 37.503124 234.65808Q37.503124 234.03308 37.05 233.6112Q36.596874 233.1737 35.878124 233.1737Q35.1125 233.1737 34.659374 233.62683Q34.20625 234.07996 34.190624 234.89246L33.1125 234.78308Q33.221874 233.56433 33.940624 232.93933Q34.675 232.2987 35.909374 232.2987Q37.14375 232.2987 37.8625 232.9862Q38.58125 233.6737 38.58125 234.68933Q38.58125 235.20496 38.3625 235.70496Q38.159374 236.18933 37.659374 236.75183Q37.175 237.2987 36.05 238.25183Q35.096874 239.0487 34.815624 239.34558Q34.55 239.62683 34.378124 239.90808L38.596874 239.90808Z" fill-rule="nonzero"/><path fill="#ffffff" d="M36.425 203.5223L36.425 201.4598L32.70625 201.4598L32.70625 200.49104L36.628124 194.92854L37.4875 194.92854L37.4875 200.49104L38.64375 200.49104L38.64375 201.4598L37.4875 201.4598L37.4875 203.5223L36.425 203.5223ZM36.425 200.49104L36.425 196.63167L33.7375 200.49104L36.425 200.49104Z" fill-rule="nonzero"/><path fill="#ffffff" d="M38.51875 159.6365L37.471874 159.71463Q37.33125 159.08963 37.08125 158.80838Q36.64375 158.35526 36.01875 158.35526Q35.51875 158.35526 35.128124 158.6365Q34.64375 159.0115 34.346874 159.71463Q34.065624 160.40213 34.05 161.68338Q34.425 161.10526 34.971874 160.824Q35.534374 160.54276 36.14375 160.54276Q37.190624 160.54276 37.925 161.324Q38.675 162.10526 38.675 163.324Q38.675 164.1365 38.315624 164.83963Q37.971874 165.52713 37.3625 165.90213Q36.753124 166.2615 35.9875 166.2615Q34.659374 166.2615 33.83125 165.29276Q33.003124 164.324 33.003124 162.10526Q33.003124 159.60526 33.925 158.48026Q34.721874 157.49588 36.08125 157.49588Q37.096874 157.49588 37.7375 158.074Q38.39375 158.6365 38.51875 159.6365ZM34.221874 163.33963Q34.221874 163.8865 34.440624 164.3865Q34.675 164.87088 35.08125 165.1365Q35.503124 165.40213 35.971874 165.40213Q36.628124 165.40213 37.1125 164.87088Q37.596874 164.324 37.596874 163.40213Q37.596874 162.5115 37.1125 161.99588Q36.64375 161.48026 35.925 161.48026Q35.20625 161.48026 34.70625 161.99588Q34.221874 162.5115 34.221874 163.33963Z" fill-rule="nonzero"/><path fill="#ffffff" d="M34.675 124.06323Q34.01875 123.81323 33.690624 123.37573Q33.378124 122.92261 33.378124 122.31323Q33.378124 121.37573 34.05 120.73511Q34.7375 120.09448 35.846874 120.09448Q36.971874 120.09448 37.659374 120.75073Q38.346874 121.40698 38.346874 122.34448Q38.346874 122.93823 38.034374 123.37573Q37.721874 123.81323 37.08125 124.06323Q37.878124 124.31323 38.284374 124.89136Q38.690624 125.46948 38.690624 126.26636Q38.690624 127.36011 37.909374 128.1101Q37.14375 128.8601 35.8625 128.8601Q34.596874 128.8601 33.815624 128.1101Q33.034374 127.36011 33.034374 126.23511Q33.034374 125.39136 33.45625 124.82886Q33.89375 124.26636 34.675 124.06323ZM34.45625 122.26636Q34.45625 122.87573 34.846874 123.26636Q35.253124 123.65698 35.878124 123.65698Q36.4875 123.65698 36.878124 123.28198Q37.26875 122.89136 37.26875 122.32886Q37.26875 121.75073 36.8625 121.36011Q36.45625 120.95386 35.8625 120.95386Q35.253124 120.95386 34.846874 121.34448Q34.45625 121.73511 34.45625 122.26636ZM34.128124 126.23511Q34.128124 126.68823 34.33125 127.11011Q34.55 127.53198 34.971874 127.76636Q35.39375 128.00073 35.878124 128.00073Q36.628124 128.00073 37.1125 127.51636Q37.6125 127.03198 37.6125 126.28198Q37.6125 125.51636 37.1125 125.01636Q36.6125 124.51636 35.846874 124.51636Q35.096874 124.51636 34.6125 125.01636Q34.128124 125.50073 34.128124 126.23511Z" fill-rule="nonzero"/><path fill="#ffffff" d="M30.01875 91.31808L28.971874 91.31808L28.971874 84.59933Q28.58125 84.9587 27.95625 85.3337Q27.346874 85.69308 26.8625 85.86495L26.8625 84.84933Q27.7375 84.42745 28.39375 83.84933Q29.065624 83.25558 29.346874 82.69308L30.01875 82.69308L30.01875 91.31808ZM33.05 87.0837Q33.05 85.55245 33.3625 84.63058Q33.675 83.69308 34.284374 83.19308Q34.909374 82.69308 35.846874 82.69308Q36.534374 82.69308 37.05 82.97433Q37.58125 83.25558 37.925 83.78683Q38.26875 84.30245 38.45625 85.05245Q38.64375 85.80245 38.64375 87.0837Q38.64375 88.59933 38.33125 89.5212Q38.034374 90.44308 37.409374 90.9587Q36.8 91.4587 35.846874 91.4587Q34.6125 91.4587 33.89375 90.56808Q33.05 89.50558 33.05 87.0837ZM34.128124 87.0837Q34.128124 89.19308 34.628124 89.8962Q35.128124 90.59933 35.846874 90.59933Q36.58125 90.59933 37.065624 89.8962Q37.565624 89.19308 37.565624 87.0837Q37.565624 84.9587 37.065624 84.2712Q36.58125 83.56808 35.83125 83.56808Q35.1125 83.56808 34.675 84.17745Q34.128124 84.9587 34.128124 87.0837Z" fill-rule="nonzero"/><path fill="#ffffff" d="M30.01875 53.916668L28.971874 53.916668L28.971874 47.197918Q28.58125 47.557293 27.95625 47.932293Q27.346874 48.291668 26.8625 48.463543L26.8625 47.447918Q27.7375 47.026043 28.39375 46.447918Q29.065624 45.854168 29.346874 45.291668L30.01875 45.291668L30.01875 53.916668ZM38.596874 52.901043L38.596874 53.916668L32.909374 53.916668Q32.909374 53.541668 33.034374 53.182293Q33.253124 52.604168 33.721874 52.041668Q34.20625 51.479168 35.1125 50.744793Q36.51875 49.588543 37.003124 48.916668Q37.503124 48.244793 37.503124 47.651043Q37.503124 47.026043 37.05 46.604168Q36.596874 46.166668 35.878124 46.166668Q35.1125 46.166668 34.659374 46.619793Q34.20625 47.072918 34.190624 47.885418L33.1125 47.776043Q33.221874 46.557293 33.940624 45.932293Q34.675 45.291668 35.909374 45.291668Q37.14375 45.291668 37.8625 45.979168Q38.58125 46.666668 38.58125 47.682293Q38.58125 48.197918 38.3625 48.697918Q38.159374 49.182293 37.659374 49.744793Q37.175 50.291668 36.05 51.244793Q35.096874 52.041668 34.815624 52.338543Q34.55 52.619793 34.378124 52.901043L38.596874 52.901043Z" fill-rule="nonzero"/><path fill="#ffffff" d="M43.342575 324.88388L37.265877 318.8072L41.364887 314.7082L42.083042 315.42633L38.790577 318.7188L40.668827 320.59705L43.519352 317.74652L44.237507 318.4647L41.386982 321.31522L44.14912 324.07733L43.342575 324.88388ZM48.148693 320.07776L43.75137 315.68045L44.42533 315.0065L45.088245 315.6694Q44.878323 314.95123 44.944614 314.5977Q45.010906 314.22205 45.27607 313.95688Q45.651722 313.58124 46.27044 313.42654L46.71238 314.3767Q46.27044 314.4872 46.005276 314.75238Q45.751156 315.0065 45.706963 315.36005Q45.66277 315.6915 45.850594 316.034Q46.11576 316.56433 46.5798 317.02838L48.888943 319.33752L48.148693 320.07776ZM52.57916 312.81888L53.44095 312.13385Q53.93813 312.9846 53.816597 313.85745Q53.695065 314.7303 52.932713 315.4926Q51.97149 316.45386 50.800343 316.43176Q49.640244 316.39862 48.568535 315.3269Q47.46368 314.22205 47.43054 313.03986Q47.38634 311.84662 48.292324 310.9406Q49.17621 310.05673 50.325256 310.10092Q51.485355 310.13406 52.57916 311.22787Q52.64545 311.2942 52.778034 311.42676L49.496613 314.7082Q50.27001 315.3932 51.021313 315.41528Q51.761566 315.42633 52.31399 314.8739Q52.72279 314.46512 52.800133 313.96793Q52.877472 313.44864 52.57916 312.81888ZM48.93314 314.0563L51.385918 311.60355Q50.778248 311.08426 50.270016 311.04007Q49.474518 310.97375 48.91104 311.53723Q48.391758 312.05652 48.38071 312.7526Q48.38071 313.4376 48.93314 314.0563ZM57.528908 307.86914L58.390694 307.1841Q58.88788 308.03485 58.766346 308.90768Q58.64481 309.78052 57.88246 310.54288Q56.921238 311.5041 55.75009 311.482Q54.589996 311.44885 53.518288 310.37714Q52.413433 309.27228 52.380287 308.0901Q52.336094 306.89685 53.242073 305.99088Q54.125957 305.107 55.275005 305.15118Q56.4351 305.18433 57.528908 306.27814Q57.5952 306.34442 57.727783 306.47702L54.446365 309.75842Q55.21976 310.44345 55.97106 310.46555Q56.711315 310.4766 57.263744 309.92416Q57.67254 309.51535 57.749878 309.0182Q57.827217 308.4989 57.528908 307.86914ZM53.88289 309.10657L56.335667 306.65378Q55.727997 306.1345 55.21976 306.0903Q54.424267 306.02402 53.86079 306.5875Q53.34151 307.10678 53.33046 307.80283Q53.33046 308.48785 53.88289 309.10657ZM65.85951 302.36694L65.30708 301.8145Q65.5391 302.88623 64.73256 303.69278Q64.202225 304.2231 63.473022 304.37778Q62.732773 304.52142 61.97042 304.2452Q61.208073 303.969 60.53411 303.29504Q59.882248 302.64316 59.56184 301.88083Q59.241432 301.11847 59.40716 300.4003Q59.56184 299.6711 60.103218 299.12973Q60.500965 298.732 60.976055 298.58835Q61.45114 298.44473 61.91518 298.51102L59.738617 296.33444L60.47887 295.5942L66.555565 301.6709L65.85951 302.36694ZM61.30751 302.52164Q62.15825 303.37238 62.931644 303.43866Q63.693996 303.4939 64.18013 303.00778Q64.66627 302.52164 64.61102 301.78137Q64.55578 301.04114 63.73819 300.22354Q62.832207 299.31757 62.05881 299.25125Q61.29646 299.17392 60.788227 299.68216Q60.291042 300.17935 60.36838 300.9196Q60.434673 301.6488 61.30751 302.52164ZM70.28998 296.85373Q70.22369 297.62714 69.98061 298.15747Q69.7486 298.67673 69.306656 299.11868Q68.57745 299.84787 67.8372 299.88104Q67.09695 299.91418 66.54452 299.36176Q66.22411 299.04135 66.10258 298.63254Q65.96999 298.2127 66.05838 297.81494Q66.13572 297.40616 66.3567 297.03052Q66.50033 296.7543 66.89807 296.24606Q67.693565 295.25168 67.96978 294.6661Q67.8151 294.51144 67.78196 294.4783Q67.31792 294.01425 66.920166 294.03635Q66.38984 294.08054 65.82636 294.644Q65.30708 295.1633 65.24079 295.60526Q65.16345 296.03613 65.50596 296.6217L64.677315 297.25146Q64.31271 296.688 64.25747 296.16873Q64.202225 295.64944 64.47844 295.06387Q64.754654 294.4783 65.31813 293.91483Q65.88161 293.35135 66.367744 293.13037Q66.85388 292.9094 67.21848 292.94254Q67.583084 292.97568 67.95873 293.21875Q68.1797 293.37344 68.67689 293.87064L69.67126 294.865Q70.70982 295.90356 71.03023 296.13556Q71.36169 296.35654 71.75943 296.46704L70.97498 297.25146Q70.63248 297.12994 70.28998 296.85373ZM68.55535 295.25168Q68.31229 295.8262 67.62727 296.7543Q67.22953 297.28464 67.13009 297.56082Q67.01961 297.826 67.0638 298.09116Q67.11904 298.34528 67.31792 298.54416Q67.61623 298.84247 68.03607 298.82037Q68.466965 298.78723 68.89786 298.35632Q69.32875 297.92545 69.47238 297.40616Q69.62706 296.87582 69.45029 296.38968Q69.3177 296.01404 68.831566 295.5279L68.55535 295.25168ZM67.693565 290.10306L66.83178 289.24127L67.583084 288.49L68.44487 289.35178L67.693565 290.10306ZM72.90848 295.318L68.51116 290.92065L69.26246 290.16937L73.65978 294.56668L72.90848 295.318ZM75.007706 293.21875L68.93101 287.14206L69.682304 286.39075L75.759 292.46747L75.007706 293.21875ZM78.8084 292.79892L78.02396 292.19125Q78.33331 292.01447 78.52114 291.82663Q78.764206 291.5836 78.81945 291.35156Q78.89679 291.11954 78.8526 290.87646Q78.797356 290.68863 78.52114 290.08096Q78.476944 290.01468 78.41065 289.8379L72.32291 287.10892L73.12945 286.30237L76.58765 287.9265Q77.25056 288.23587 77.93557 288.6336Q77.54887 287.98175 77.23951 287.31885L75.61537 283.81644L76.35563 283.0762L79.16196 289.21918Q79.6039 290.21356 79.73648 290.6334Q79.91325 291.20792 79.81382 291.63882Q79.73648 292.0697 79.38293 292.42328Q79.173004 292.63318 78.8084 292.79892Z" fill-rule="nonzero"/><path fill="#ffffff" d="M86.32597 335.49048L80.249275 329.4138L84.34828 325.3148L85.06644 326.03293L81.77397 329.3254L83.65223 331.20364L86.50275 328.35312L87.22091 329.0713L84.370384 331.9218L87.132515 334.68396L86.32597 335.49048ZM91.13209 330.6844L86.73477 326.28705L87.40873 325.6131L88.07164 326.276Q87.861725 325.55786 87.92801 325.20428Q87.9943 324.82864 88.25947 324.56348Q88.63512 324.18784 89.25384 324.03314L89.69578 324.98334Q89.25384 325.0938 88.98867 325.35898Q88.73456 325.6131 88.69036 325.96664Q88.646164 326.2981 88.83399 326.6406Q89.09916 327.17093 89.563194 327.63498L91.872345 329.94412L91.13209 330.6844ZM95.56255 323.42548L96.42434 322.74048Q96.921524 323.59122 96.799995 324.46405Q96.67846 325.33688 95.91611 326.0992Q94.95489 327.06046 93.78374 327.03836Q92.62364 327.00522 91.55193 325.9335Q90.44708 324.82864 90.41393 323.64645Q90.36974 322.45322 91.27572 321.54724Q92.15961 320.66333 93.308655 320.70755Q94.46875 320.7407 95.56255 321.8345Q95.628845 321.9008 95.76143 322.03336L92.48001 325.3148Q93.25341 325.9998 94.004715 326.02188Q94.744965 326.03293 95.29739 325.4805Q95.706184 325.07172 95.78352 324.57452Q95.86087 324.05524 95.56255 323.42548ZM91.916534 324.6629L94.369316 322.21014Q93.76164 321.69086 93.25341 321.64667Q92.45792 321.58038 91.89444 322.14386Q91.37516 322.66312 91.36411 323.3592Q91.36411 324.0442 91.916534 324.6629ZM100.51231 318.47574L101.37409 317.7907Q101.87128 318.64145 101.74974 319.51428Q101.628204 320.38712 100.86586 321.14948Q99.90463 322.1107 98.73349 322.0886Q97.57339 322.05545 96.50168 320.98376Q95.39683 319.8789 95.363686 318.69672Q95.31949 317.50345 96.22547 316.59747Q97.10935 315.7136 98.2584 315.75778Q99.418495 315.79092 100.51231 316.88474Q100.5786 316.95102 100.711174 317.08362L97.429756 320.36502Q98.203156 321.05005 98.95446 321.07214Q99.69471 321.0832 100.24714 320.53076Q100.65594 320.12198 100.73328 319.6248Q100.810616 319.1055 100.51231 318.47574ZM96.86629 319.71317L99.31906 317.2604Q98.71139 316.74112 98.203156 316.69693Q97.40766 316.6306 96.844185 317.1941Q96.324905 317.71338 96.31386 318.40945Q96.31386 319.09445 96.86629 319.71317ZM105.99238 315.82407L101.59506 311.42676L102.25797 310.76385L102.87669 311.38257Q102.75516 310.8412 102.909836 310.31085Q103.05347 309.76947 103.49541 309.32755Q103.981544 308.8414 104.48978 308.73093Q105.00906 308.60938 105.49519 308.85245Q105.263176 307.55978 106.09182 306.73114Q106.75473 306.0682 107.46184 306.0903Q108.168945 306.0903 108.9313 306.85266L111.94755 309.86893L111.20729 310.60916L108.43411 307.836Q107.992165 307.39404 107.71595 307.27252Q107.45079 307.13992 107.141426 307.2062Q106.83207 307.27252 106.5669 307.53766Q106.10287 308.0017 106.10287 308.62042Q106.113914 309.2281 106.79893 309.91312L109.351135 312.46533L108.59984 313.2166L105.738266 310.35504Q105.24108 309.85788 104.81019 309.8026Q104.379295 309.72528 103.9705 310.1341Q103.65009 310.4545 103.55065 310.88538Q103.45122 311.31628 103.65009 311.7582Q103.84896 312.20016 104.44559 312.79678L106.732635 315.08383L105.99238 315.82407ZM111.295685 306.12347Q110.06929 304.89706 110.157684 303.63754Q110.23502 302.58792 111.05261 301.77032Q111.958595 300.86435 113.12974 300.88644Q114.30089 300.88644 115.350494 301.93607Q116.20123 302.7868 116.43326 303.52704Q116.665276 304.2673 116.444305 305.0407Q116.223335 305.792 115.64881 306.36652Q114.73178 307.28357 113.57168 307.27252Q112.41158 307.23935 111.295685 306.12347ZM112.05803 305.3611Q112.89772 306.2008 113.68217 306.25604Q114.47766 306.30023 115.03009 305.7478Q115.59357 305.18433 115.53832 304.3999Q115.48308 303.61545 114.62129 302.75366Q113.8037 301.93607 113.00821 301.89188Q112.22376 301.83664 111.67133 302.38904Q111.118904 302.94147 111.1631 303.73697Q111.20729 304.51038 112.05803 305.3611ZM118.72031 303.09616L114.32298 298.69885L114.98589 298.03592L115.604614 298.65463Q115.3726 297.45035 116.28963 296.53333Q116.68737 296.1356 117.16246 295.94775Q117.6486 295.74887 118.04634 295.81516Q118.44409 295.88147 118.81974 296.12454Q119.062805 296.3013 119.58209 296.8206L122.28899 299.52747L121.54873 300.26773L118.874985 297.594Q118.41094 297.12994 118.101585 296.99738Q117.79223 296.86478 117.438675 296.95316Q117.07407 297.03052 116.77576 297.32883Q116.300674 297.8039 116.25648 298.46683Q116.21228 299.10764 117.05197 299.94733L119.460556 302.3559L118.72031 303.09616ZM124.63127 295.85938L125.39362 296.40076Q125.1395 296.78745 124.89644 297.03052Q124.48764 297.4393 124.14514 297.53873Q123.79159 297.62714 123.48222 297.51663Q123.183914 297.3951 122.50996 296.72116L119.979836 294.19104L119.43846 294.73242L118.86394 294.1579L119.40531 293.61652L118.31151 292.5227L118.60982 291.3405L120.14557 292.87625L120.896866 292.12497L121.47139 292.6995L120.72009 293.45078L123.2944 296.0251Q123.61481 296.3455 123.73634 296.40076Q123.86893 296.44495 124.01256 296.4118Q124.15619 296.37863 124.321915 296.21292Q124.4545 296.08032 124.63127 295.85938ZM125.791374 296.0251L119.71467 289.9484L120.454926 289.20813L122.631485 291.3847Q122.554146 290.2688 123.34964 289.4733Q123.846825 288.97614 124.399254 288.82144Q124.95168 288.64465 125.44887 288.8325Q125.935005 289.00928 126.58687 289.66113L129.3711 292.44537L128.63084 293.1856L125.84661 290.4014Q125.283134 289.83792 124.78595 289.82684Q124.28877 289.8158 123.846825 290.25775Q123.51537 290.5892 123.39384 291.0643Q123.2723 291.51727 123.438034 291.94818Q123.60376 292.35696 124.12304 292.87625L126.531624 295.28485L125.791374 296.0251ZM132.3984 292.79892L131.61395 292.19125Q131.92331 292.01447 132.11115 291.82663Q132.3542 291.5836 132.40945 291.35156Q132.48679 291.11954 132.4426 290.87646Q132.38734 290.68866 132.11115 290.08096Q132.06694 290.01468 132.00066 289.83792L125.9129 287.10892L126.71945 286.30237L130.17764 287.9265Q130.84056 288.23587 131.52556 288.6336Q131.13887 287.98175 130.82951 287.31885L129.20537 283.81644L129.94562 283.0762L132.75195 289.21918Q133.1939 290.21356 133.32648 290.6334Q133.50325 291.20792 133.40382 291.63882Q133.32648 292.0697 132.97293 292.42328Q132.763 292.63318 132.3984 292.79892Z" fill-rule="nonzero"/><path fill="#ffffff" d="M141.33018 334.07626L135.25348 327.99957L139.3525 323.90057L140.07065 324.6187L136.77818 327.9112L138.65643 329.78943L141.50696 326.9389L142.22511 327.65707L139.37459 330.5076L142.13673 333.26974L141.33018 334.07626ZM146.1363 329.27017L141.73898 324.87283L142.41295 324.19888L143.07585 324.8618Q142.86594 324.14365 142.93222 323.79007Q142.99852 323.41443 143.26369 323.14926Q143.63933 322.77362 144.25804 322.61893L144.7 323.56912Q144.25804 323.6796 143.99289 323.94476Q143.73877 324.19888 143.69458 324.55243Q143.65038 324.88388 143.83821 325.22638Q144.10336 325.7567 144.56741 326.22076L146.87656 328.5299L146.1363 329.27017ZM150.56677 322.01126L151.42856 321.32626Q151.92574 322.177 151.8042 323.04984Q151.68266 323.92267 150.92032 324.68503Q149.95909 325.64624 148.78795 325.62415Q147.62785 325.591 146.55615 324.5193Q145.4513 323.41443 145.41815 322.23224Q145.37395 321.039 146.27994 320.13303Q147.16382 319.24915 148.31287 319.29333Q149.47296 319.32648 150.56677 320.4203Q150.63306 320.48657 150.76564 320.61914L147.48422 323.90057Q148.25761 324.58557 149.00893 324.60767Q149.74918 324.6187 150.3016 324.06628Q150.7104 323.6575 150.78773 323.1603Q150.86508 322.64102 150.56677 322.01126ZM146.92075 323.24872L149.37352 320.79593Q148.76585 320.27664 148.25761 320.23245Q147.46213 320.16617 146.89865 320.72964Q146.37936 321.24893 146.36832 321.94498Q146.36832 322.62997 146.92075 323.24872ZM155.51651 317.06152L156.3783 316.37653Q156.87549 317.22723 156.75395 318.1001Q156.63242 318.97293 155.87007 319.73526Q154.90884 320.6965 153.7377 320.6744Q152.5776 320.64124 151.50589 319.56955Q150.40103 318.4647 150.36789 317.2825Q150.3237 316.08926 151.22968 315.18326Q152.11356 314.29938 153.26262 314.34357Q154.42271 314.37674 155.51651 315.47052Q155.58281 315.53683 155.7154 315.6694L152.43398 318.95084Q153.20737 319.63583 153.95866 319.65793Q154.69893 319.66898 155.25134 319.11655Q155.66014 318.70776 155.73749 318.21057Q155.81482 317.69128 155.51651 317.06152ZM151.8705 318.29895L154.32327 315.8462Q153.7156 315.3269 153.20737 315.2827Q152.41188 315.2164 151.8484 315.77988Q151.32912 316.29916 151.31807 316.99524Q151.31807 317.68024 151.8705 318.29895ZM163.32784 310.99588Q163.26155 311.76926 163.01848 312.2996Q162.78645 312.81888 162.34451 313.26083Q161.61531 313.99002 160.87506 314.02316Q160.13481 314.0563 159.58238 313.50388Q159.26198 313.18347 159.14044 312.7747Q159.00786 312.35483 159.09624 311.9571Q159.17358 311.5483 159.39455 311.17264Q159.53818 310.89642 159.93593 310.3882Q160.73143 309.39383 161.00764 308.80826Q160.85297 308.65356 160.81981 308.62042Q160.35577 308.1564 159.95802 308.1785Q159.4277 308.2227 158.86423 308.78616Q158.34494 309.30545 158.27866 309.74738Q158.20131 310.17828 158.54381 310.76385L157.71518 311.39362Q157.35057 310.83014 157.29533 310.31085Q157.24008 309.79156 157.5163 309.206Q157.79251 308.62042 158.35599 308.05695Q158.91946 307.49347 159.40561 307.27252Q159.89174 307.05154 160.25633 307.0847Q160.62094 307.11783 160.9966 307.3609Q161.21756 307.51556 161.71475 308.01276L162.70912 309.00714Q163.74768 310.0457 164.06808 310.2777Q164.39954 310.4987 164.79729 310.60916L164.01285 311.39362Q163.67033 311.2721 163.32784 310.99588ZM161.59322 309.39383Q161.35014 309.96835 160.66513 310.89642Q160.2674 311.42676 160.16795 311.70297Q160.05746 311.96814 160.10165 312.2333Q160.1569 312.48743 160.35577 312.6863Q160.65408 312.98462 161.07393 312.96252Q161.50482 312.92935 161.93571 312.49847Q162.36661 312.06757 162.51024 311.5483Q162.66492 311.01797 162.48814 310.53183Q162.35556 310.1562 161.86943 309.67004L161.59322 309.39383ZM165.94633 309.4601L161.54903 305.0628L162.21193 304.3999L162.83064 305.01862Q162.59863 303.81433 163.51566 302.89728Q163.9134 302.49954 164.38849 302.3117Q164.87463 302.11285 165.27238 302.17914Q165.67012 302.24542 166.04578 302.4885Q166.28885 302.66528 166.80812 303.18454L169.51501 305.89145L168.77477 306.63168L166.10101 303.95795Q165.63698 303.4939 165.32762 303.36133Q165.01826 303.22873 164.6647 303.31714Q164.30011 303.39447 164.0018 303.69278Q163.5267 304.16788 163.48251 304.83078Q163.43832 305.4716 164.27802 306.31128L166.68658 308.71988L165.94633 309.4601ZM170.89609 304.51038L166.49876 300.11307L167.16168 299.45013L167.7804 300.06885Q167.54839 298.86456 168.46541 297.94754Q168.86316 297.5498 169.33824 297.36197Q169.82437 297.1631 170.22212 297.22937Q170.61987 297.2957 170.99553 297.53876Q171.23859 297.7155 171.75787 298.2348L174.46477 300.94168L173.72452 301.68195L171.05077 299.0082Q170.58673 298.54416 170.27737 298.4116Q169.968 298.279 169.61446 298.36737Q169.24985 298.44473 168.95154 298.74304Q168.47646 299.2181 168.43227 299.88104Q168.38806 300.52185 169.22775 301.36154L171.63634 303.7701L170.89609 304.51038ZM178.7295 296.67697L178.07764 296.0251Q178.30966 297.2957 177.42578 298.17957Q177.03908 298.56625 176.55295 298.76514Q176.0668 298.9419 175.6801 298.88666Q175.28236 298.82037 174.88461 298.5552Q174.6305 298.3895 174.14436 297.90335L171.42642 295.1854L172.17772 294.4341L174.61945 296.87582Q175.19397 297.45035 175.44809 297.6161Q175.80164 297.83707 176.19939 297.79285Q176.59714 297.72656 176.93964 297.38406Q177.2711 297.0526 177.39262 296.5996Q177.51416 296.12454 177.33739 295.70468Q177.17166 295.2738 176.60818 294.71033L174.25484 292.35696L174.9951 291.61673L179.39241 296.01404L178.7295 296.67697ZM183.12683 291.19687Q183.06053 291.97028 182.81746 292.5006Q182.58545 293.0199 182.14351 293.46182Q181.4143 294.19104 180.67404 294.22418Q179.93379 294.25732 179.38136 293.7049Q179.06096 293.3845 178.93942 292.9757Q178.80684 292.55585 178.89523 292.1581Q178.97256 291.7493 179.19354 291.37366Q179.33717 291.09744 179.73492 290.5892Q180.53041 289.59485 180.80663 289.00928Q180.65195 288.85458 180.6188 288.82144Q180.15477 288.3574 179.75702 288.37952Q179.22668 288.4237 178.66321 288.98718Q178.14394 289.50644 178.07764 289.9484Q178.0003 290.3793 178.3428 290.96487L177.51416 291.59464Q177.14957 291.03116 177.09431 290.51187Q177.03908 289.99258 177.31529 289.407Q177.5915 288.82144 178.15498 288.25797Q178.71846 287.6945 179.20459 287.4735Q179.69073 287.25256 180.05533 287.2857Q180.41994 287.31885 180.79558 287.56192Q181.01656 287.71658 181.51373 288.21378L182.5081 289.20813Q183.54668 290.2467 183.86708 290.47873Q184.19853 290.6997 184.59628 290.81018L183.81183 291.59464Q183.46933 291.47308 183.12683 291.19687ZM181.3922 289.59485Q181.14914 290.16937 180.46413 291.09744Q180.06638 291.62778 179.96693 291.904Q179.85646 292.16916 179.90065 292.43433Q179.95589 292.68845 180.15477 292.8873Q180.45308 293.1856 180.87292 293.1635Q181.30382 293.13037 181.73471 292.6995Q182.1656 292.2686 182.30923 291.7493Q182.46391 291.21896 182.28714 290.73285Q182.15456 290.35718 181.66841 289.87106L181.3922 289.59485ZM185.72324 289.68323L179.64653 283.60654L180.39783 282.85522L186.47453 288.93192L185.72324 289.68323Z" fill-rule="nonzero"/><path fill="#ffffff" d="M184.9986 343.99786L178.9219 337.92117L183.30817 333.53488L184.02632 334.25305L180.4466 337.83276L182.30275 339.68893L185.66151 336.33017L186.37967 337.04834L183.0209 340.40707L185.08699 342.47318L188.81035 338.74982L189.5285 339.46796L184.9986 343.99786ZM188.93188 337.43503L189.5506 336.59534Q190.05884 336.97098 190.56706 336.9268Q191.08635 336.87155 191.60564 336.35226Q192.11386 335.84402 192.15805 335.4021Q192.20226 334.93805 191.915 334.6508Q191.66087 334.39667 191.29626 334.47403Q191.04216 334.52927 190.2798 334.98224Q189.25229 335.5899 188.78825 335.7667Q188.32422 335.9214 187.89333 335.82193Q187.46243 335.7225 187.13097 335.39105Q186.8437 335.1038 186.72217 334.71707Q186.60065 334.33038 186.66693 333.93265Q186.72217 333.63434 186.9321 333.24762Q187.14201 332.86093 187.49557 332.5074Q188.0038 331.99915 188.54518 331.76712Q189.08656 331.513 189.5285 331.57928Q189.97044 331.6456 190.45659 331.99915L189.82681 332.8278Q189.45116 332.54053 189.02026 332.59576Q188.58937 332.6289 188.14743 333.07086Q187.6392 333.57907 187.595 333.97684Q187.53976 334.36353 187.77179 334.59555Q187.91542 334.7392 188.11429 334.7613Q188.33527 334.7834 188.60043 334.67288Q188.75511 334.6066 189.45116 334.1978Q190.46764 333.6233 190.90958 333.4465Q191.35152 333.2697 191.78241 333.34708Q192.2133 333.4244 192.6 333.8111Q192.97565 334.18677 193.08614 334.7392Q193.19662 335.2695 192.97565 335.86612Q192.74364 336.45172 192.22435 336.97098Q191.36256 337.83276 190.55602 337.93222Q189.74948 338.00955 188.93188 337.43503ZM193.88162 332.4853L194.50035 331.6456Q195.00858 332.02124 195.51682 331.97705Q196.0361 331.9218 196.55537 331.40253Q197.06361 330.8943 197.1078 330.45236Q197.152 329.9883 196.86473 329.70105Q196.61063 329.44693 196.24602 329.52426Q195.9919 329.5795 195.22955 330.0325Q194.20204 330.64017 193.73799 330.81696Q193.27396 330.97162 192.84306 330.8722Q192.41217 330.77277 192.08072 330.44128Q191.79346 330.15402 191.67192 329.76733Q191.55038 329.38065 191.61668 328.98288Q191.67192 328.68457 191.88184 328.29788Q192.09177 327.9112 192.44531 327.55762Q192.95355 327.0494 193.49493 326.81738Q194.03632 326.56326 194.47826 326.62955Q194.9202 326.69583 195.40633 327.0494L194.77657 327.87805Q194.40091 327.59076 193.97002 327.64603Q193.53912 327.67917 193.09718 328.1211Q192.58894 328.62933 192.54475 329.0271Q192.48952 329.4138 192.72153 329.6458Q192.86516 329.78943 193.06404 329.81152Q193.285 329.83362 193.55017 329.72314Q193.70485 329.65686 194.40091 329.24805Q195.41737 328.67352 195.85931 328.49677Q196.30125 328.31998 196.73215 328.3973Q197.16304 328.47467 197.54974 328.86136Q197.9254 329.237 198.03589 329.78943Q198.14636 330.31976 197.9254 330.91638Q197.69337 331.50195 197.1741 332.02124Q196.31232 332.88303 195.50577 332.98245Q194.69922 333.0598 193.88162 332.4853ZM202.03546 324.13257L202.89725 323.44757Q203.39442 324.2983 203.27289 325.17114Q203.15135 326.04398 202.389 326.80634Q201.42778 327.76755 200.25664 327.74545Q199.09654 327.7123 198.02483 326.6406Q196.91998 325.53574 196.88684 324.35355Q196.84264 323.1603 197.74863 322.25433Q198.6325 321.37045 199.78156 321.41464Q200.94165 321.44778 202.03546 322.5416Q202.10175 322.60788 202.23433 322.74048L198.95291 326.02188Q199.7263 326.70688 200.47762 326.72897Q201.21786 326.74005 201.7703 326.18762Q202.1791 325.7788 202.25642 325.28162Q202.33377 324.76236 202.03546 324.13257ZM198.38943 325.37003L200.84221 322.91724Q200.23454 322.39795 199.7263 322.35376Q198.93082 322.28748 198.36734 322.85095Q197.84805 323.37024 197.837 324.06628Q197.837 324.7513 198.38943 325.37003ZM205.39421 323.60226L200.99689 319.20493L201.6598 318.54202L202.27852 319.16074Q202.04651 317.95645 202.96353 317.03943Q203.36128 316.64166 203.83636 316.45386Q204.32251 316.25497 204.72025 316.32126Q205.118 316.38754 205.49365 316.6306Q205.73671 316.8074 206.256 317.3267L208.96289 320.03357L208.22264 320.77383L205.54889 318.10007Q205.08485 317.63605 204.7755 317.50345Q204.46614 317.37088 204.11258 317.45926Q203.74799 317.5366 203.44966 317.8349Q202.97458 318.31 202.93039 318.9729Q202.8862 319.61374 203.72588 320.45343L206.13446 322.862L205.39421 323.60226ZM211.30518 316.36545L212.06754 316.90683Q211.81342 317.29352 211.57034 317.5366Q211.16154 317.9454 210.81905 318.04483Q210.4655 318.1332 210.15613 318.02274Q209.85782 317.9012 209.18387 317.22723L206.65375 314.6971L206.11237 315.2385L205.53784 314.66397L206.07922 314.1226L204.98541 313.0288L205.28372 311.8466L206.81947 313.38235L207.57077 312.63104L208.1453 313.20557L207.394 313.95688L209.9683 316.5312Q210.28871 316.8516 210.41025 316.90683Q210.54283 316.95102 210.68646 316.91788Q210.8301 316.88474 210.99582 316.719Q211.1284 316.58643 211.30518 316.36545ZM207.25037 311.31628L206.38858 310.4545L207.13988 309.7032L208.00166 310.56497L207.25037 311.31628ZM212.46529 316.5312L208.06796 312.13385L208.81926 311.38257L213.21658 315.77988L212.46529 316.5312ZM216.91785 310.99585Q216.85155 311.76926 216.60849 312.2996Q216.37646 312.81888 215.93452 313.2608Q215.20532 313.99002 214.46507 314.02316Q213.72481 314.0563 213.1724 313.50388Q212.85197 313.18347 212.73044 312.7747Q212.59787 312.35483 212.68625 311.9571Q212.7636 311.54828 212.98456 311.17264Q213.12819 310.89642 213.52594 310.38818Q214.32144 309.39383 214.59766 308.80826Q214.44296 308.65356 214.40982 308.62042Q213.94579 308.15637 213.54803 308.1785Q213.0177 308.2227 212.45424 308.78616Q211.93495 309.30542 211.86865 309.74738Q211.79132 310.17828 212.13382 310.76385L211.30518 311.39362Q210.94058 310.83014 210.88535 310.31085Q210.8301 309.79156 211.10631 309.206Q211.38252 308.62042 211.946 308.05695Q212.50948 307.49347 212.9956 307.2725Q213.48175 307.05154 213.84634 307.0847Q214.21095 307.11783 214.5866 307.3609Q214.80757 307.51556 215.30475 308.01276L216.29912 309.0071Q217.33769 310.0457 217.6581 310.2777Q217.98955 310.4987 218.3873 310.60916L217.60286 311.39362Q217.26035 311.27206 216.91785 310.99585ZM215.18323 309.39383Q214.94016 309.96835 214.25514 310.89642Q213.85739 311.42676 213.75797 311.70297Q213.64748 311.96814 213.69167 312.2333Q213.74692 312.48743 213.94579 312.68628Q214.2441 312.9846 214.66394 312.9625Q215.09483 312.92935 215.52573 312.49847Q215.95662 312.06757 216.10025 311.54828Q216.25493 311.01794 216.07816 310.53183Q215.94557 310.15616 215.45944 309.67004L215.18323 309.39383ZM219.51425 309.4822L213.43755 303.40552L214.18886 302.6542L220.26555 308.7309L219.51425 309.4822ZM226.62952 302.36694L226.07709 301.8145Q226.3091 302.88623 225.50256 303.69278Q224.97223 304.2231 224.24303 304.37778Q223.50278 304.52142 222.74043 304.2452Q221.97807 303.969 221.30411 303.295Q220.65225 302.64316 220.33185 301.88083Q220.01143 301.11847 220.17717 300.4003Q220.33185 299.6711 220.87321 299.12973Q221.27097 298.73196 221.74606 298.58835Q222.22115 298.4447 222.68518 298.51102L220.50862 296.33444L221.24887 295.5942L227.32558 301.6709L226.62952 302.36694ZM222.07751 302.52164Q222.92825 303.37238 223.70164 303.43866Q224.464 303.4939 224.95013 303.00775Q225.43626 302.52164 225.38103 301.78137Q225.32579 301.04114 224.5082 300.22354Q223.60222 299.31757 222.82881 299.25125Q222.06647 299.17392 221.55823 299.68216Q221.06105 300.17935 221.13838 300.9196Q221.20468 301.6488 222.07751 302.52164ZM231.05998 296.85373Q230.99368 297.62714 230.75063 298.15744Q230.5186 298.67673 230.07666 299.11868Q229.34746 299.84787 228.60721 299.88104Q227.86694 299.91418 227.31453 299.36176Q226.99411 299.04135 226.87257 298.63254Q226.74 298.2127 226.82838 297.81494Q226.90573 297.40616 227.1267 297.03052Q227.27032 296.7543 227.66808 296.24606Q228.46358 295.25168 228.73979 294.6661Q228.5851 294.51144 228.55196 294.4783Q228.08792 294.01425 227.69017 294.03635Q227.15984 294.08054 226.59637 294.644Q226.07709 295.1633 226.01079 295.60526Q225.93346 296.03613 226.27596 296.6217L225.44731 297.25146Q225.08272 296.688 225.02748 296.16873Q224.97223 295.64944 225.24844 295.06387Q225.52466 294.4783 226.08813 293.91483Q226.65161 293.35135 227.13774 293.13037Q227.62389 292.9094 227.98848 292.94254Q228.35309 292.97568 228.72873 293.21875Q228.9497 293.37344 229.44688 293.8706L230.44125 294.865Q231.47983 295.90356 231.80023 296.13556Q232.13168 296.35654 232.52943 296.46704L231.745 297.25146Q231.40248 297.12994 231.05998 296.85373ZM229.32536 295.25168Q229.08229 295.8262 228.39728 296.7543Q227.99953 297.2846 227.9001 297.56082Q227.78961 297.826 227.8338 298.09116Q227.88905 298.34528 228.08792 298.54416Q228.38623 298.84247 228.80608 298.82037Q229.23697 298.78723 229.66786 298.35632Q230.09875 297.92545 230.24239 297.40616Q230.39706 296.87582 230.22029 296.38968Q230.0877 296.01404 229.60158 295.5279L229.32536 295.25168ZM228.46358 290.10306L227.60179 289.24127L228.35309 288.49L229.21487 289.35178L228.46358 290.10306ZM233.67848 295.318L229.28116 290.92065L230.03247 290.16937L234.42978 294.56668L233.67848 295.318ZM235.77771 293.21875L229.701 287.14206L230.4523 286.39075L236.529 292.46747L235.77771 293.21875ZM239.5784 292.79892L238.79396 292.19125Q239.10332 292.01447 239.29114 291.82663Q239.53421 291.58356 239.58945 291.35156Q239.6668 291.11954 239.6226 290.87646Q239.56735 290.68863 239.29114 290.08096Q239.24695 290.01468 239.18066 289.8379L233.09291 287.10892L233.89946 286.30237L237.35765 287.9265Q238.02055 288.23587 238.70557 288.6336Q238.31888 287.98175 238.0095 287.31885L236.38538 283.81644L237.12563 283.0762L239.93196 289.21918Q240.3739 290.21356 240.50648 290.6334Q240.68326 291.20792 240.58382 291.63882Q240.50648 292.0697 240.15292 292.42325Q239.94301 292.63318 239.5784 292.79892Z" fill-rule="nonzero"/><path fill="#ffffff" d="M227.982 354.60446L221.9053 348.52777L226.29156 344.1415L227.00972 344.85965L223.43 348.4394L225.28615 350.29553L228.64491 346.93677L229.36307 347.65494L226.0043 351.0137L228.07039 353.07977L231.79375 349.3564L232.5119 350.07455L227.982 354.60446ZM231.91528 348.04163L232.534 347.20193Q233.04224 347.5776 233.55046 347.5334Q234.06975 347.47815 234.58902 346.95886Q235.09726 346.45065 235.14145 346.0087Q235.18565 345.54465 234.89839 345.2574Q234.64427 345.0033 234.27966 345.08063Q234.02554 345.13586 233.2632 345.58887Q232.23569 346.19653 231.77165 346.3733Q231.3076 346.52798 230.87671 346.42856Q230.44582 346.3291 230.11436 345.99765Q229.8271 345.7104 229.70557 345.3237Q229.58403 344.93698 229.65033 344.53925Q229.70557 344.24094 229.9155 343.85425Q230.12541 343.46753 230.47897 343.11398Q230.9872 342.60574 231.52858 342.37372Q232.06996 342.1196 232.5119 342.1859Q232.95384 342.2522 233.43997 342.60574L232.81021 343.4344Q232.43456 343.14713 232.00366 343.20236Q231.57277 343.2355 231.13083 343.67746Q230.6226 344.1857 230.5784 344.58344Q230.52316 344.97012 230.75519 345.20215Q230.89882 345.3458 231.09769 345.3679Q231.31865 345.38998 231.58382 345.27948Q231.7385 345.2132 232.43456 344.8044Q233.45102 344.2299 233.89296 344.0531Q234.33492 343.87634 234.76581 343.95367Q235.1967 344.031 235.58339 344.4177Q235.95905 344.79337 236.06953 345.3458Q236.18002 345.87613 235.95905 346.47275Q235.72702 347.05832 235.20775 347.5776Q234.34596 348.4394 233.53941 348.53882Q232.73286 348.61615 231.91528 348.04163ZM236.86502 343.0919L237.48375 342.2522Q237.99197 342.62784 238.50021 342.58365Q239.01949 342.5284 239.53877 342.00912Q240.04701 341.5009 240.0912 341.05896Q240.13539 340.5949 239.84813 340.30765Q239.59401 340.05353 239.22942 340.13086Q238.9753 340.18613 238.21295 340.6391Q237.18544 341.24677 236.72139 341.42355Q236.25735 341.57825 235.82646 341.4788Q235.39557 341.37936 235.06412 341.0479Q234.77686 340.76065 234.65532 340.37393Q234.53378 339.98724 234.60007 339.5895Q234.65532 339.2912 234.86523 338.90448Q235.07516 338.5178 235.42871 338.16425Q235.93695 337.656 236.47833 337.42398Q237.0197 337.16986 237.46164 337.23615Q237.9036 337.30246 238.38972 337.656L237.75996 338.48465Q237.38431 338.1974 236.95341 338.25262Q236.52252 338.28577 236.08058 338.72772Q235.57234 339.23593 235.52815 339.6337Q235.47292 340.0204 235.70493 340.2524Q235.84856 340.39603 236.04744 340.41812Q236.2684 340.44025 236.53357 340.32974Q236.68825 340.26346 237.38431 339.85468Q238.40077 339.28012 238.84271 339.10336Q239.28465 338.92657 239.71555 339.00394Q240.14644 339.08127 240.53314 339.46796Q240.9088 339.8436 241.01927 340.39603Q241.12976 340.92636 240.9088 341.52298Q240.67677 342.10855 240.15749 342.62784Q239.2957 343.48962 238.48917 343.58908Q237.68262 343.6664 236.86502 343.0919ZM245.01884 334.7392L245.88063 334.05417Q246.37782 334.9049 246.25629 335.77774Q246.13475 336.65057 245.3724 337.41293Q244.41118 338.37415 243.24004 338.35205Q242.07994 338.3189 241.00822 337.2472Q239.90338 336.14236 239.87022 334.96014Q239.82603 333.7669 240.73201 332.86093Q241.6159 331.97705 242.76495 332.02124Q243.92505 332.05438 245.01884 333.1482Q245.08514 333.21448 245.21773 333.34708L241.93631 336.62848Q242.7097 337.3135 243.461 337.3356Q244.20126 337.34665 244.7537 336.79422Q245.16248 336.3854 245.23982 335.88824Q245.31715 335.36896 245.01884 334.7392ZM241.37283 335.97662L243.8256 333.52383Q243.21794 333.00458 242.7097 332.96036Q241.91422 332.89407 241.35074 333.45755Q240.83145 333.97684 240.8204 334.67288Q240.8204 335.3579 241.37283 335.97662ZM248.37761 334.20886L243.98029 329.81152L244.6432 329.14862L245.26192 329.76733Q245.02989 328.56305 245.94693 327.64603Q246.34468 327.24826 246.81976 327.06046Q247.3059 326.86157 247.70364 326.92786Q248.1014 326.99414 248.47705 327.2372Q248.72011 327.414 249.2394 327.9333L251.94629 330.64017L251.20604 331.38043L248.53229 328.70667Q248.06825 328.24265 247.7589 328.11005Q247.44952 327.97748 247.09598 328.06586Q246.73137 328.14322 246.43306 328.44153Q245.95798 328.9166 245.91379 329.57953Q245.86958 330.22034 246.70927 331.06003L249.11786 333.4686L248.37761 334.20886ZM254.28857 326.97205L255.05093 327.51343Q254.79681 327.90015 254.55374 328.14322Q254.14494 328.552 253.80244 328.65143Q253.44888 328.73984 253.13953 328.62933Q252.84122 328.5078 252.16725 327.83383L249.63715 325.30374L249.09576 325.8451L248.52124 325.27057L249.06262 324.72922L247.96881 323.6354L248.26712 322.45322L249.80287 323.98895L250.55417 323.23764L251.1287 323.81216L250.3774 324.56348L252.9517 327.1378Q253.27211 327.4582 253.39365 327.51343Q253.52623 327.55762 253.66986 327.52448Q253.81349 327.49133 253.97922 327.32562Q254.1118 327.19302 254.28857 326.97205ZM250.23376 321.92288L249.37198 321.0611L250.12328 320.30978L250.98506 321.17157L250.23376 321.92288ZM255.44867 327.1378L251.05136 322.74048L251.80266 321.98917L256.19998 326.38647L255.44867 327.1378ZM259.90125 321.60248Q259.83496 322.37585 259.5919 322.9062Q259.35986 323.42548 258.9179 323.86743Q258.18872 324.59662 257.44846 324.62976Q256.70822 324.6629 256.1558 324.11047Q255.83537 323.79007 255.71384 323.3813Q255.58125 322.96143 255.66965 322.5637Q255.74698 322.1549 255.96796 321.77924Q256.1116 321.50302 256.50934 320.99478Q257.30484 320.00043 257.58105 319.41486Q257.42636 319.26016 257.39322 319.22702Q256.92917 318.763 256.53143 318.7851Q256.0011 318.82928 255.43762 319.39276Q254.91835 319.91205 254.85205 320.35397Q254.77472 320.78488 255.11722 321.37045L254.28857 322.0002Q253.92398 321.43674 253.86873 320.91745Q253.81349 320.39816 254.0897 319.8126Q254.36592 319.22702 254.9294 318.66354Q255.49287 318.10007 255.979 317.87912Q256.46515 317.65814 256.82974 317.69128Q257.19434 317.72443 257.57 317.9675Q257.79095 318.12216 258.28815 318.61935L259.28253 319.61374Q260.32108 320.65228 260.64148 320.8843Q260.97296 321.1053 261.3707 321.21576L260.58624 322.0002Q260.24374 321.8787 259.90125 321.60248ZM258.16663 320.00043Q257.92355 320.57495 257.23853 321.50302Q256.8408 322.03336 256.74136 322.30957Q256.63086 322.57474 256.67505 322.8399Q256.73032 323.09402 256.92917 323.2929Q257.22748 323.59122 257.64734 323.56912Q258.07822 323.53595 258.50912 323.10507Q258.94 322.67416 259.08365 322.1549Q259.2383 321.62457 259.06155 321.13843Q258.92896 320.7628 258.44284 320.27664L258.16663 320.00043ZM262.49765 320.0888L256.42096 314.01212L257.17224 313.2608L263.24896 319.33752L262.49765 320.0888ZM266.7624 315.82407L262.36505 311.42676L263.02798 310.76385L263.6467 311.38257Q263.52515 310.8412 263.67984 310.31085Q263.8235 309.76947 264.2654 309.32755Q264.75156 308.8414 265.2598 308.73093Q265.77905 308.60938 266.2652 308.85245Q266.03317 307.55975 266.86182 306.73114Q267.52472 306.0682 268.23184 306.0903Q268.93893 306.0903 269.7013 306.85266L272.71756 309.86893L271.9773 310.60916L269.2041 307.83597Q268.76218 307.39404 268.48596 307.2725Q268.2208 307.13992 267.91144 307.2062Q267.60208 307.2725 267.3369 307.53766Q266.87286 308.0017 266.87286 308.62042Q266.8839 309.2281 267.56894 309.91312L270.12115 312.46533L269.36984 313.2166L266.50827 310.35504Q266.01108 309.85788 265.5802 309.8026Q265.1493 309.72528 264.7405 310.13406Q264.4201 310.4545 264.32065 310.88538Q264.22122 311.31628 264.4201 311.7582Q264.61896 312.20016 265.21558 312.79678L267.50262 315.08383L266.7624 315.82407ZM272.06567 306.12344Q270.8393 304.89706 270.92767 303.63754Q271.00504 302.58792 271.82263 301.77032Q272.7286 300.86435 273.89975 300.88644Q275.0709 300.88644 276.1205 301.93607Q276.97125 302.7868 277.20325 303.52704Q277.43527 304.2673 277.2143 305.0407Q276.99335 305.792 276.41882 306.36652Q275.50177 307.28357 274.34167 307.2725Q273.18158 307.23935 272.06567 306.12344ZM272.82803 305.3611Q273.66772 306.2008 274.45218 306.25604Q275.24765 306.30023 275.80008 305.7478Q276.36356 305.18433 276.30832 304.39987Q276.25308 303.61545 275.3913 302.75366Q274.5737 301.93607 273.7782 301.89188Q272.99377 301.8366 272.44135 302.38904Q271.88892 302.94147 271.9331 303.73697Q271.9773 304.51038 272.82803 305.3611ZM279.4903 303.09616L275.093 298.69882L275.7559 298.03592L276.3746 298.65463Q276.1426 297.45035 277.05963 296.53333Q277.45737 296.13556 277.93246 295.94775Q278.4186 295.74887 278.81635 295.81516Q279.21408 295.88147 279.58975 296.1245Q279.83282 296.3013 280.35208 296.8206L283.059 299.52747L282.31873 300.26773L279.645 297.594Q279.18094 297.12994 278.87158 296.99734Q278.56223 296.86478 278.20868 296.95316Q277.8441 297.03052 277.54578 297.32883Q277.07068 297.8039 277.0265 298.46683Q276.9823 299.10764 277.822 299.94733L280.23056 302.3559L279.4903 303.09616ZM285.40128 295.85938L286.16364 296.40073Q285.90952 296.78745 285.66644 297.03052Q285.25766 297.4393 284.91513 297.53873Q284.56158 297.62714 284.25223 297.51663Q283.95392 297.3951 283.27997 296.72116L280.74985 294.19104L280.20847 294.73242L279.63394 294.1579L280.17532 293.61652L279.0815 292.5227L279.37982 291.3405L280.91556 292.87625L281.66687 292.12494L282.2414 292.69946L281.49008 293.45078L284.0644 296.0251Q284.3848 296.3455 284.50635 296.40073Q284.63892 296.44495 284.78256 296.41177Q284.92618 296.37863 285.09192 296.21292Q285.2245 296.08032 285.40128 295.85938ZM286.56137 296.0251L280.48468 289.9484L281.2249 289.20813L283.4015 291.3847Q283.32416 290.2688 284.11966 289.4733Q284.61682 288.9761 285.16925 288.82144Q285.72168 288.64465 286.21887 288.8325Q286.70502 289.00928 287.35687 289.66113L290.1411 292.44537L289.40085 293.1856L286.6166 290.40137Q286.05313 289.8379 285.55597 289.82684Q285.05878 289.8158 284.61682 290.25775Q284.28537 290.5892 284.16385 291.0643Q284.0423 291.51727 284.20804 291.94818Q284.37375 292.35696 284.89304 292.87625L287.30164 295.28485L286.56137 296.0251ZM293.1684 292.79892L292.38394 292.19125Q292.69333 292.01447 292.88113 291.82663Q293.1242 291.5836 293.17944 291.35156Q293.2568 291.11954 293.2126 290.87646Q293.15735 290.68863 292.88113 290.08096Q292.83694 290.01468 292.77066 289.8379L286.68292 287.10892L287.48944 286.30237L290.94763 287.9265Q291.61057 288.23587 292.29556 288.6336Q291.90887 287.98175 291.59952 287.31885L289.97537 283.81644L290.71564 283.0762L293.52194 289.21918Q293.9639 290.21356 294.09647 290.6334Q294.27325 291.20792 294.17383 291.63882Q294.09647 292.0697 293.74292 292.42325Q293.53302 292.63318 293.1684 292.79892Z" fill-rule="nonzero"/><path fill="#ffffff" d="M291.34995 340.9153L292.03497 340.09772Q292.55426 340.50653 293.04037 340.5949Q293.52652 340.6833 294.12314 340.46234Q294.71976 340.21927 295.23904 339.69998Q295.69205 339.24698 295.913 338.76086Q296.12292 338.26367 296.05664 337.86594Q295.99036 337.44608 295.71414 337.16986Q295.42688 336.8826 295.0512 336.8384Q294.66452 336.78317 294.14523 337.0152Q293.7917 337.16986 292.7531 337.81067Q291.72562 338.44046 291.21738 338.59512Q290.5434 338.80505 290.00204 338.6835Q289.44962 338.55093 289.02975 338.1311Q288.57678 337.6781 288.43314 337.02625Q288.28952 336.35226 288.58783 335.65622Q288.88614 334.93805 289.4938 334.33038Q290.16776 333.65643 290.90802 333.35812Q291.6372 333.04877 292.34433 333.20343Q293.04037 333.34708 293.5928 333.85532L292.87466 334.68393Q292.23383 334.17572 291.58197 334.25305Q290.9301 334.3083 290.23404 335.00436Q289.50485 335.73355 289.43857 336.33017Q289.37225 336.9268 289.74792 337.30246Q290.07938 337.6339 290.5213 337.61182Q290.96326 337.58972 292.1565 336.8384Q293.36078 336.07605 293.8911 335.8772Q294.67557 335.60098 295.30533 335.7225Q295.92404 335.833 296.42123 336.33017Q296.90738 336.8163 297.06204 337.5234Q297.2057 338.21948 296.92947 338.98184Q296.6422 339.73312 295.99036 340.38498Q295.1617 341.21362 294.3662 341.5451Q293.5707 341.85446 292.76416 341.68872Q291.96866 341.51193 291.34995 340.9153ZM300.1004 334.75024L300.86276 335.29163Q300.60864 335.6783 300.36557 335.9214Q299.95676 336.33017 299.61426 336.42963Q299.2607 336.518 298.95135 336.40753Q298.65305 336.28598 297.9791 335.61203L295.44897 333.0819L294.9076 333.6233L294.33307 333.04877L294.87445 332.5074L293.78064 331.41357L294.07895 330.23138L295.6147 331.76712L296.366 331.01584L296.94052 331.59036L296.1892 332.34164L298.76352 334.91595Q299.08392 335.23636 299.20547 335.29163Q299.33804 335.33582 299.4817 335.30267Q299.6253 335.26953 299.79105 335.1038Q299.9236 334.9712 300.1004 334.75024ZM303.59174 331.50195Q303.52545 332.27536 303.28238 332.8057Q303.05035 333.32498 302.60843 333.7669Q301.8792 334.49612 301.13898 334.52927Q300.3987 334.5624 299.84628 334.00998Q299.52588 333.68958 299.40436 333.2808Q299.27176 332.86093 299.36014 332.4632Q299.4375 332.05438 299.65845 331.67874Q299.8021 331.40253 300.19983 330.8943Q300.99533 329.89993 301.27155 329.31436Q301.11688 329.15967 301.0837 329.12653Q300.6197 328.66248 300.22192 328.68457Q299.69162 328.7288 299.12814 329.29227Q298.60886 329.81152 298.54254 330.25348Q298.4652 330.68436 298.8077 331.26996L297.9791 331.89972Q297.61447 331.33624 297.55923 330.81696Q297.504 330.29767 297.7802 329.7121Q298.05643 329.12653 298.6199 328.56305Q299.18338 327.99957 299.6695 327.7786Q300.15564 327.55765 300.52023 327.5908Q300.88486 327.62393 301.2605 327.867Q301.48148 328.02167 301.97867 328.51886L302.97302 329.5132Q304.0116 330.5518 304.332 330.7838Q304.66345 331.0048 305.0612 331.11526L304.27676 331.89972Q303.93423 331.77817 303.59174 331.50195ZM301.85712 329.89993Q301.61404 330.47446 300.92905 331.40253Q300.53128 331.93286 300.43185 332.20908Q300.32138 332.47424 300.36557 332.7394Q300.4208 332.99353 300.6197 333.19238Q300.918 333.4907 301.33783 333.4686Q301.76874 333.43546 302.19962 333.00458Q302.63052 332.57367 302.77414 332.05438Q302.92883 331.52405 302.75204 331.03793Q302.61948 330.66226 302.13333 330.17615L301.85712 329.89993ZM306.21024 329.96622L301.81293 325.5689L302.47583 324.90598L303.09454 325.5247Q302.86255 324.3204 303.77957 323.40338Q304.1773 323.00565 304.6524 322.8178Q305.13855 322.61893 305.5363 322.6852Q305.93402 322.75153 306.3097 322.9946Q306.55276 323.17136 307.07202 323.69064L309.77893 326.39752L309.03867 327.1378L306.36493 324.46405Q305.90088 324.0 305.59152 323.86743Q305.28217 323.73483 304.92862 323.8232Q304.56403 323.90057 304.26572 324.19888Q303.79062 324.67395 303.74643 325.33688Q303.70224 325.9777 304.5419 326.81738L306.9505 329.22595L306.21024 329.96622ZM314.01053 322.16595L313.4581 321.61353Q313.69012 322.6852 312.88358 323.49176Q312.35324 324.0221 311.62402 324.1768Q310.8838 324.3204 310.12143 324.0442Q309.35907 323.76797 308.68512 323.09402Q308.03326 322.44217 307.71286 321.6798Q307.39243 320.91745 307.55817 320.1993Q307.71286 319.4701 308.2542 318.9287Q308.65198 318.53098 309.12708 318.38733Q309.60214 318.2437 310.0662 318.31L307.88962 316.13345L308.62988 315.3932L314.70657 321.46988L314.01053 322.16595ZM309.45853 322.32062Q310.30927 323.17136 311.08264 323.23764Q311.845 323.2929 312.33115 322.80676Q312.81726 322.32062 312.76202 321.58038Q312.7068 320.84012 311.8892 320.02252Q310.98322 319.11655 310.2098 319.05026Q309.44748 318.97293 308.93924 319.48114Q308.44205 319.97833 308.51938 320.7186Q308.5857 321.44778 309.45853 322.32062ZM318.44098 316.6527Q318.3747 317.42612 318.13162 317.95645Q317.8996 318.47574 317.45767 318.91766Q316.72845 319.64688 315.98822 319.68002Q315.24796 319.71317 314.69553 319.16074Q314.37512 318.84033 314.25357 318.43155Q314.121 318.0117 314.20938 317.61395Q314.28674 317.20514 314.5077 316.8295Q314.65134 316.55328 315.04907 316.04504Q315.84457 315.0507 316.1208 314.46512Q315.9661 314.31042 315.93295 314.27728Q315.46893 313.81323 315.07117 313.83536Q314.54083 313.87955 313.9774 314.44302Q313.4581 314.96228 313.39178 315.40424Q313.31445 315.83514 313.65695 316.42072L312.8283 317.05048Q312.4637 316.487 312.40848 315.9677Q312.35324 315.44843 312.62946 314.86285Q312.90567 314.27728 313.46915 313.7138Q314.03262 313.15033 314.51874 312.92935Q315.00488 312.7084 315.36948 312.74155Q315.7341 312.7747 316.10974 313.01776Q316.33072 313.17242 316.82788 313.66962L317.82227 314.66397Q318.86084 315.70255 319.18124 315.93457Q319.5127 316.15555 319.91043 316.26602L319.126 317.05048Q318.78348 316.92892 318.44098 316.6527ZM316.70636 315.0507Q316.4633 315.6252 315.7783 316.55328Q315.38052 317.08362 315.2811 317.35983Q315.17062 317.625 315.2148 317.89017Q315.27005 318.1443 315.46893 318.34314Q315.76724 318.64145 316.18707 318.61935Q316.61798 318.5862 317.04886 318.15533Q317.47977 317.72443 317.62338 317.20514Q317.77808 316.6748 317.6013 316.1887Q317.46872 315.81302 316.98257 315.3269L316.70636 315.0507ZM321.04843 315.12802L316.65112 310.7307L317.32507 310.05673L317.988 310.71967Q317.77808 310.0015 317.84436 309.64795Q317.91064 309.2723 318.1758 309.00714Q318.55148 308.63147 319.1702 308.4768L319.61212 309.42697Q319.1702 309.53745 318.90503 309.8026Q318.6509 310.05673 318.60672 310.4103Q318.56253 310.74176 318.75034 311.08426Q319.0155 311.6146 319.47955 312.0786L321.7887 314.38776L321.04843 315.12802ZM326.73843 309.43802L326.186 308.8856Q326.41803 309.9573 325.61148 310.76385Q325.08115 311.2942 324.35196 311.44885Q323.6117 311.5925 322.84937 311.31628Q322.087 311.04007 321.41306 310.3661Q320.76117 309.71423 320.44077 308.95187Q320.12036 308.18954 320.2861 307.47137Q320.44077 306.7422 320.98215 306.2008Q321.37988 305.80304 321.85498 305.65942Q322.33008 305.51578 322.7941 305.5821L320.61755 303.40552L321.3578 302.66525L327.4345 308.74197L326.73843 309.43802ZM322.18643 309.5927Q323.03717 310.44345 323.81058 310.50974Q324.57294 310.56497 325.05905 310.07883Q325.5452 309.5927 325.48996 308.85245Q325.43472 308.11218 324.61713 307.29462Q323.71115 306.3886 322.93774 306.32233Q322.17538 306.245 321.66714 306.75323Q321.16998 307.2504 321.2473 307.99066Q321.3136 308.71988 322.18643 309.5927ZM333.8095 302.36694L333.25708 301.8145Q333.4891 302.88623 332.68256 303.69278Q332.15222 304.2231 331.42303 304.37778Q330.68277 304.52142 329.9204 304.2452Q329.15808 303.969 328.4841 303.29504Q327.83224 302.64316 327.51184 301.88083Q327.19144 301.11847 327.35715 300.4003Q327.51184 299.6711 328.05322 299.12973Q328.45096 298.732 328.92606 298.58835Q329.40115 298.44473 329.86517 298.51102L327.68863 296.33444L328.42886 295.5942L334.50555 301.6709L333.8095 302.36694ZM329.2575 302.52164Q330.10825 303.37238 330.88165 303.43866Q331.64398 303.4939 332.13013 303.00778Q332.61627 302.52164 332.56104 301.78137Q332.50577 301.04114 331.6882 300.22354Q330.7822 299.31757 330.00882 299.25125Q329.24646 299.17392 328.73822 299.68216Q328.24103 300.17935 328.3184 300.9196Q328.38467 301.6488 329.2575 302.52164ZM338.23996 296.85373Q338.17368 297.62714 337.9306 298.15747Q337.6986 298.67673 337.25665 299.11868Q336.52744 299.8479 335.7872 299.88104Q335.04694 299.91418 334.4945 299.36176Q334.1741 299.04135 334.05258 298.63254Q333.91998 298.2127 334.0084 297.81494Q334.08572 297.40616 334.3067 297.03052Q334.45032 296.7543 334.84808 296.24606Q335.64355 295.25168 335.91977 294.6661Q335.7651 294.51144 335.73196 294.4783Q335.2679 294.01425 334.87018 294.03635Q334.33984 294.08054 333.77637 294.644Q333.25708 295.1633 333.1908 295.60526Q333.11346 296.03613 333.45596 296.6217L332.62732 297.25146Q332.26273 296.688 332.20746 296.16873Q332.15222 295.64944 332.42844 295.06387Q332.70465 294.4783 333.26813 293.91483Q333.8316 293.35135 334.31775 293.13037Q334.80386 292.9094 335.1685 292.94254Q335.53308 292.9757 335.90872 293.21875Q336.1297 293.37344 336.6269 293.87064L337.62125 294.865Q338.65982 295.90356 338.98022 296.1356Q339.31168 296.35654 339.70944 296.46704L338.925 297.25146Q338.5825 297.12994 338.23996 296.85373ZM336.50534 295.25168Q336.2623 295.8262 335.57727 296.7543Q335.17953 297.28464 335.08008 297.56085Q334.9696 297.826 335.0138 298.09116Q335.06903 298.34528 335.2679 298.54416Q335.56622 298.84247 335.98608 298.82037Q336.41696 298.78723 336.84787 298.35632Q337.27875 297.92545 337.4224 297.40616Q337.57706 296.87582 337.4003 296.38968Q337.2677 296.01404 336.78156 295.5279L336.50534 295.25168ZM335.64355 290.10306L334.78177 289.24127L335.53308 288.49L336.39487 289.35178L335.64355 290.10306ZM340.8585 295.318L336.46115 290.92065L337.21246 290.16937L341.60977 294.56668L340.8585 295.318ZM342.9577 293.21875L336.881 287.14206L337.6323 286.39075L343.709 292.46747L342.9577 293.21875ZM346.7584 292.79892L345.97397 292.19125Q346.28333 292.01447 346.47113 291.82663Q346.7142 291.5836 346.76944 291.35156Q346.8468 291.11954 346.80258 290.87646Q346.74734 290.68866 346.47113 290.08096Q346.42694 290.01468 346.36066 289.83792L340.27292 287.10892L341.07944 286.30237L344.53763 287.9265Q345.20056 288.23587 345.88556 288.6336Q345.49887 287.98175 345.1895 287.31885L343.56537 283.81644L344.30563 283.0762L347.11194 289.21918Q347.5539 290.21356 347.6865 290.6334Q347.86325 291.20792 347.76382 291.63882Q347.6865 292.0697 347.33292 292.42328Q347.12302 292.63318 346.7584 292.79892Z" fill-rule="nonzero"/><path fill="#ffffff" d="M335.74756 350.10773L336.4326 349.29013Q336.95184 349.6989 337.438 349.7873Q337.92413 349.8757 338.52075 349.65472Q339.11737 349.41165 339.63666 348.89236Q340.08963 348.4394 340.3106 347.95325Q340.52054 347.45605 340.45425 347.05832Q340.38794 346.63846 340.11172 346.36224Q339.82446 346.07498 339.44882 346.0308Q339.06213 345.97556 338.54285 346.20758Q338.1893 346.36224 337.15073 347.00308Q336.1232 347.63284 335.615 347.7875Q334.941 347.99744 334.39963 347.87592Q333.84723 347.74332 333.42737 347.3235Q332.97437 346.87048 332.83075 346.21863Q332.6871 345.54468 332.98544 344.8486Q333.28375 344.13046 333.89142 343.5228Q334.56537 342.84882 335.30563 342.5505Q336.03482 342.24115 336.74194 342.39584Q337.438 342.53946 337.99042 343.0477L337.27228 343.87634Q336.63144 343.3681 335.97958 343.44543Q335.32773 343.50067 334.63165 344.19675Q333.90247 344.92593 333.83615 345.52258Q333.76987 346.1192 334.14554 346.49484Q334.477 346.8263 334.9189 346.8042Q335.36087 346.7821 336.5541 346.0308Q337.7584 345.26846 338.28873 345.06958Q339.07318 344.79337 339.70294 344.9149Q340.32166 345.0254 340.81885 345.52258Q341.305 346.0087 341.45966 346.71582Q341.6033 347.41187 341.3271 348.17422Q341.03983 348.9255 340.38794 349.5774Q339.55933 350.40604 338.76382 350.7375Q337.96832 351.04684 337.16177 350.8811Q336.36627 350.70435 335.74756 350.10773ZM344.49802 343.94263L345.26035 344.484Q345.00626 344.8707 344.76318 345.11377Q344.35437 345.52258 344.01187 345.622Q343.65833 345.7104 343.34897 345.5999Q343.05066 345.47836 342.37668 344.8044L339.8466 342.2743L339.3052 342.81567L338.73068 342.24115L339.27206 341.69977L338.17825 340.60596L338.47656 339.42377L340.0123 340.95953L340.7636 340.20822L341.33813 340.78275L340.58682 341.53406L343.16113 344.10837Q343.48154 344.42877 343.6031 344.484Q343.73566 344.5282 343.8793 344.49506Q344.02292 344.4619 344.18866 344.29617Q344.32123 344.1636 344.49802 343.94263ZM347.98935 340.69437Q347.92307 341.46774 347.68 341.99808Q347.44797 342.51736 347.00604 342.95932Q346.27682 343.6885 345.53656 343.72165Q344.79633 343.7548 344.2439 343.20236Q343.9235 342.88196 343.80194 342.47318Q343.66937 342.0533 343.75775 341.65558Q343.83508 341.2468 344.05606 340.87112Q344.1997 340.5949 344.59744 340.08667Q345.39294 339.09232 345.66916 338.50674Q345.51447 338.35205 345.48132 338.3189Q345.0173 337.8549 344.61954 337.87698Q344.0892 337.92117 343.52573 338.48465Q343.00647 339.00394 342.94016 339.44586Q342.86282 339.87677 343.20532 340.46234L342.37668 341.0921Q342.0121 340.52863 341.95685 340.00934Q341.9016 339.49005 342.17783 338.90448Q342.45404 338.3189 343.01752 337.75543Q343.581 337.19196 344.0671 336.971Q344.55325 336.75003 344.91785 336.78317Q345.28247 336.8163 345.6581 337.0594Q345.8791 337.21405 346.37625 337.71124L347.37064 338.70563Q348.40918 339.74417 348.7296 339.9762Q349.06107 340.19717 349.4588 340.30765L348.67435 341.0921Q348.33185 340.97058 347.98935 340.69437ZM346.25473 339.09232Q346.01166 339.66684 345.32666 340.5949Q344.9289 341.12524 344.82947 341.40146Q344.719 341.66663 344.76318 341.9318Q344.81842 342.1859 345.0173 342.3848Q345.3156 342.6831 345.73544 342.66098Q346.16635 342.62784 346.59723 342.19696Q347.02814 341.76605 347.17175 341.2468Q347.32645 340.71646 347.14966 340.23032Q347.0171 339.85468 346.53094 339.36853L346.25473 339.09232ZM350.60785 339.1586L346.21054 334.7613L346.87344 334.0984L347.49216 334.7171Q347.26013 333.5128 348.1772 332.59576Q348.57492 332.19803 349.05002 332.0102Q349.53613 331.81134 349.9339 331.87762Q350.33163 331.9439 350.7073 332.18698Q350.95035 332.36374 351.46964 332.88303L354.17654 335.58994L353.43628 336.33017L350.76254 333.65643Q350.2985 333.19238 349.98914 333.0598Q349.67978 332.92722 349.32623 333.01562Q348.9616 333.09296 348.6633 333.39127Q348.18823 333.86636 348.14404 334.52927Q348.09982 335.17007 348.9395 336.00977L351.3481 338.41837L350.60785 339.1586ZM358.4081 331.35834L357.8557 330.8059Q358.0877 331.87762 357.2812 332.68417Q356.75085 333.21448 356.02164 333.36917Q355.2814 333.5128 354.51904 333.2366Q353.75668 332.9604 353.08273 332.2864Q352.43088 331.63455 352.11044 330.8722Q351.79004 330.10986 351.95578 329.3917Q352.11044 328.6625 352.65182 328.12112Q353.0496 327.72336 353.52466 327.57974Q353.99976 327.4361 354.4638 327.50238L352.28723 325.32584L353.0275 324.58557L359.1042 330.6623L358.4081 331.35834ZM353.85614 331.513Q354.70688 332.36374 355.48026 332.43005Q356.2426 332.4853 356.72876 331.99915Q357.21487 331.513 357.15964 330.77277Q357.1044 330.0325 356.2868 329.2149Q355.38083 328.30893 354.60742 328.24265Q353.8451 328.1653 353.33685 328.67355Q352.83966 329.17072 352.917 329.91098Q352.9833 330.64017 353.85614 331.513ZM362.8386 325.84512Q362.7723 326.6185 362.52924 327.14883Q362.2972 327.66812 361.8553 328.11008Q361.12607 328.83926 360.3858 328.8724Q359.64557 328.90555 359.09314 328.35312Q358.77274 328.0327 358.65118 327.62393Q358.51862 327.20407 358.607 326.80634Q358.68433 326.39755 358.9053 326.02188Q359.04895 325.74567 359.4467 325.23746Q360.2422 324.24307 360.5184 323.6575Q360.3637 323.5028 360.33057 323.46967Q359.86655 323.00565 359.46878 323.02774Q358.93845 323.07193 358.37497 323.6354Q357.8557 324.1547 357.7894 324.59662Q357.71207 325.02753 358.05457 325.6131L357.22592 326.24286Q356.86133 325.67938 356.8061 325.1601Q356.75085 324.6408 357.02707 324.05524Q357.30328 323.46967 357.86676 322.9062Q358.43024 322.3427 358.91635 322.12177Q359.4025 321.9008 359.7671 321.93393Q360.1317 321.96707 360.50735 322.21014Q360.72833 322.3648 361.2255 322.862L362.21988 323.85638Q363.25842 324.89493 363.57886 325.12695Q363.9103 325.34793 364.30804 325.4584L363.5236 326.24286Q363.1811 326.12134 362.8386 325.84512ZM361.10397 324.24307Q360.8609 324.8176 360.1759 325.74567Q359.77814 326.276 359.6787 326.55222Q359.56824 326.81738 359.61243 327.08255Q359.66766 327.33667 359.86655 327.53555Q360.16486 327.83386 360.5847 327.81177Q361.0156 327.7786 361.44647 327.34772Q361.87738 326.9168 362.021 326.39755Q362.1757 325.86722 361.9989 325.38107Q361.86633 325.00543 361.3802 324.5193L361.10397 324.24307ZM365.44604 324.3204L361.04874 319.9231L361.7227 319.24915L362.3856 319.91205Q362.1757 319.19388 362.24197 318.84033Q362.30826 318.4647 362.57343 318.19952Q362.94907 317.82388 363.5678 317.6692L364.00974 318.61935Q363.5678 318.72986 363.30264 318.99503Q363.04852 319.24915 363.00433 319.6027Q362.9601 319.93414 363.14795 320.27664Q363.41312 320.80698 363.87717 321.27103L366.1863 323.58017L365.44604 324.3204ZM371.13605 318.6304L370.58362 318.07797Q370.81564 319.1497 370.0091 319.95624Q369.47876 320.48657 368.74957 320.64124Q368.0093 320.78488 367.24695 320.50867Q366.48462 320.23245 365.81064 319.5585Q365.15878 318.90662 364.83838 318.1443Q364.51797 317.38193 364.6837 316.6638Q364.83838 315.93457 365.37976 315.3932Q365.7775 314.99545 366.2526 314.8518Q366.7277 314.7082 367.1917 314.77448L365.01517 312.5979L365.7554 311.85767L371.8321 317.93436L371.13605 318.6304ZM366.58405 318.7851Q367.43478 319.63583 368.2082 319.70212Q368.97052 319.75735 369.45667 319.27124Q369.9428 318.7851 369.88757 318.04483Q369.8323 317.3046 369.01474 316.487Q368.10873 315.58102 367.33536 315.5147Q366.573 315.43738 366.06476 315.94562Q365.5676 316.4428 365.64493 317.18304Q365.7112 317.91226 366.58405 318.7851ZM377.68784 310.99588Q377.62155 311.76926 377.37848 312.2996Q377.14645 312.81888 376.70453 313.26083Q375.9753 313.99002 375.23505 314.02316Q374.4948 314.0563 373.94238 313.50388Q373.62198 313.18347 373.50043 312.7747Q373.36786 312.35483 373.45624 311.9571Q373.53357 311.5483 373.75455 311.17264Q373.8982 310.89642 374.29593 310.3882Q375.09143 309.39383 375.36765 308.80826Q375.21295 308.65356 375.1798 308.62042Q374.7158 308.1564 374.31802 308.1785Q373.7877 308.2227 373.2242 308.78616Q372.70496 309.30545 372.63864 309.74738Q372.5613 310.17828 372.9038 310.76385L372.07516 311.39362Q371.71057 310.83014 371.65533 310.31085Q371.6001 309.79156 371.8763 309.206Q372.15253 308.62042 372.716 308.05695Q373.27948 307.49347 373.7656 307.27252Q374.25174 307.05154 374.61633 307.0847Q374.98096 307.11783 375.3566 307.3609Q375.57758 307.51556 376.07474 308.01276L377.06912 309.00714Q378.10767 310.0457 378.4281 310.2777Q378.75955 310.4987 379.1573 310.60916L378.37283 311.39362Q378.03033 311.2721 377.68784 310.99588ZM375.95322 309.39383Q375.71014 309.96835 375.02515 310.89642Q374.62738 311.42676 374.52795 311.70297Q374.41748 311.96814 374.46167 312.2333Q374.5169 312.48743 374.7158 312.6863Q375.0141 312.98462 375.43393 312.96252Q375.86484 312.92935 376.29572 312.49847Q376.72662 312.06757 376.87024 311.5483Q377.02493 311.01797 376.84814 310.53183Q376.71558 310.1562 376.22943 309.67004L375.95322 309.39383ZM380.30634 309.4601L375.90903 305.0628L376.57193 304.3999L377.19064 305.01862Q376.95862 303.81433 377.87567 302.89728Q378.2734 302.49954 378.7485 302.3117Q379.23462 302.11285 379.6324 302.17914Q380.03012 302.24542 380.40576 302.4885Q380.64883 302.66528 381.16812 303.18454L383.87503 305.89145L383.13477 306.63168L380.46103 303.95795Q379.99698 303.4939 379.68762 303.36133Q379.37827 303.22873 379.02472 303.31714Q378.6601 303.39447 378.3618 303.69278Q377.88672 304.16788 377.84253 304.83078Q377.7983 305.4716 378.638 306.31128L381.0466 308.71988L380.30634 309.4601ZM385.25607 304.51038L380.85876 300.11307L381.52167 299.45013L382.1404 300.06885Q381.9084 298.86456 382.8254 297.94754Q383.22314 297.5498 383.69824 297.36197Q384.1844 297.1631 384.58212 297.22937Q384.9799 297.2957 385.35553 297.53876Q385.5986 297.7155 386.11786 298.2348L388.82477 300.94168L388.0845 301.68195L385.41077 299.0082Q384.94672 298.54416 384.63736 298.4116Q384.328 298.279 383.97446 298.36737Q383.60986 298.44473 383.31155 298.74304Q382.83646 299.2181 382.79227 299.88104Q382.74808 300.52185 383.58777 301.36154L385.99634 303.7701L385.25607 304.51038ZM393.0895 296.67697L392.43765 296.0251Q392.66965 297.2957 391.78577 298.17957Q391.39908 298.56625 390.91293 298.76514Q390.42682 298.9419 390.0401 298.88666Q389.64236 298.82037 389.2446 298.5552Q388.9905 298.3895 388.50436 297.90335L385.7864 295.1854L386.53772 294.4341L388.97946 296.87582Q389.554 297.45035 389.80807 297.6161Q390.16165 297.83707 390.5594 297.79285Q390.95712 297.72656 391.29965 297.38406Q391.6311 297.0526 391.75262 296.5996Q391.87418 296.12454 391.6974 295.70468Q391.53165 295.2738 390.96817 294.71033L388.61484 292.35696L389.3551 291.61673L393.7524 296.01404L393.0895 296.67697ZM397.48682 291.19687Q397.42053 291.97028 397.17746 292.5006Q396.94543 293.0199 396.5035 293.46182Q395.7743 294.19104 395.03406 294.22418Q394.2938 294.25732 393.74136 293.7049Q393.42096 293.3845 393.29944 292.9757Q393.16684 292.55585 393.25522 292.1581Q393.33258 291.7493 393.55356 291.37366Q393.69717 291.09744 394.0949 290.5892Q394.8904 289.59485 395.16663 289.00928Q395.01196 288.85458 394.97882 288.82144Q394.51477 288.3574 394.117 288.37952Q393.5867 288.4237 393.02322 288.98718Q392.50394 289.50644 392.43765 289.9484Q392.3603 290.3793 392.70282 290.96487L391.87418 291.59464Q391.50955 291.03116 391.4543 290.51187Q391.39908 289.99258 391.6753 289.407Q391.9515 288.82144 392.51498 288.25797Q393.07846 287.6945 393.5646 287.4735Q394.05072 287.25256 394.41534 287.2857Q394.77994 287.31885 395.15558 287.56192Q395.37656 287.71658 395.87375 288.21378L396.8681 289.20813Q397.90668 290.2467 398.22708 290.47873Q398.55853 290.6997 398.95627 290.81018L398.17184 291.59464Q397.8293 291.47308 397.48682 291.19687ZM395.7522 289.59485Q395.50912 290.16937 394.82413 291.09744Q394.4264 291.62778 394.32693 291.904Q394.21646 292.16916 394.26065 292.43433Q394.3159 292.68845 394.51477 292.8873Q394.81308 293.1856 395.2329 293.1635Q395.66382 293.13037 396.0947 292.6995Q396.5256 292.2686 396.66922 291.7493Q396.8239 291.21896 396.64713 290.73285Q396.51456 290.35718 396.0284 289.87106L395.7522 289.59485ZM400.08322 289.68323L394.00653 283.60654L394.75784 282.85522L400.83453 288.93192L400.08322 289.68323Z" fill-rule="nonzero"/><path fill="#ffffff" d="M400.0436 343.31287L393.9669 337.23618L396.26498 334.93808Q396.86163 334.34143 397.23727 334.0763Q397.7676 333.70062 398.27585 333.61224Q398.7951 333.51282 399.34753 333.71167Q399.911 333.8995 400.364 334.3525Q401.13742 335.1259 401.1816 336.16446Q401.2258 337.1809 399.9331 338.4736L398.37527 340.03143L400.85016 342.50632L400.0436 343.31287ZM397.66815 339.32434L399.23706 337.75543Q400.0215 336.971 400.05466 336.36334Q400.0878 335.73355 399.55746 335.20322Q399.18182 334.82758 398.71777 334.7613Q398.25372 334.6729 397.856 334.89386Q397.59082 335.04855 397.04944 335.58994L395.4916 337.14777L397.66815 339.32434ZM405.601 337.75543L401.2037 333.35812L401.87766 332.68417L402.54056 333.34708Q402.33066 332.6289 402.39694 332.27536Q402.46323 331.89972 402.7284 331.63455Q403.10403 331.2589 403.72278 331.10422L404.1647 332.05438Q403.72278 332.1649 403.4576 332.43005Q403.2035 332.68417 403.1593 333.03772Q403.11508 333.36917 403.30292 333.71167Q403.56808 334.242 404.03214 334.70605L406.34128 337.0152L405.601 337.75543ZM410.0315 330.49655L410.89328 329.81155Q411.39044 330.6623 411.26892 331.53513Q411.1474 332.40796 410.38504 333.1703Q409.42383 334.13153 408.25266 334.10944Q407.09256 334.0763 406.02087 333.00458Q404.91602 331.89972 404.88287 330.71753Q404.83865 329.5243 405.74466 328.6183Q406.62854 327.7344 407.7776 327.7786Q408.93768 327.81177 410.0315 328.90555Q410.09778 328.97186 410.23035 329.10443L406.94894 332.38586Q407.72235 333.07086 408.47363 333.09296Q409.2139 333.104 409.76633 332.55157Q410.1751 332.1428 410.25244 331.6456Q410.3298 331.1263 410.0315 330.49655ZM406.38547 331.73398L408.83823 329.28122Q408.23056 328.76193 407.72235 328.71774Q406.92685 328.65146 406.36337 329.21494Q405.8441 329.7342 405.83304 330.43027Q405.83304 331.11526 406.38547 331.73398ZM413.39023 329.96622L408.99292 325.5689L409.65582 324.90598L410.27454 325.52472Q410.153 324.98334 410.3077 324.453Q410.45132 323.91162 410.89328 323.46967Q411.3794 322.98355 411.88763 322.87305Q412.40692 322.75153 412.89307 322.9946Q412.66104 321.7019 413.4897 320.87326Q414.1526 320.21036 414.8597 320.23245Q415.5668 320.23245 416.32916 320.9948L419.3454 324.01105L418.60516 324.7513L415.83197 321.97812Q415.39 321.5362 415.1138 321.41464Q414.84866 321.28207 414.53928 321.34836Q414.22992 321.41464 413.96475 321.6798Q413.50073 322.14386 413.50073 322.76257Q413.51178 323.37024 414.19678 324.05524L416.749 326.60745L415.9977 327.35876L413.13614 324.4972Q412.63895 324.0 412.20804 323.94476Q411.77716 323.86743 411.36835 324.2762Q411.04794 324.59662 410.94852 325.02753Q410.8491 325.4584 411.04794 325.90036Q411.24683 326.3423 411.84344 326.93893L414.1305 329.22598L413.39023 329.96622ZM415.9535 316.97314L415.0917 316.11136L415.84302 315.36005L416.7048 316.22183L415.9535 316.97314ZM421.16843 322.18805L416.7711 317.79074L417.5224 317.03943L421.9197 321.43674L421.16843 322.18805ZM426.1734 317.18304L425.52155 316.5312Q425.75357 317.8018 424.8697 318.68567Q424.48297 319.07236 423.99686 319.27124Q423.5107 319.448 423.124 319.39276Q422.72626 319.32648 422.32852 319.0613Q422.0744 318.89557 421.58826 318.40945L418.87033 315.6915L419.6216 314.94022L422.06335 317.38193Q422.63788 317.95645 422.892 318.1222Q423.24554 318.34314 423.64328 318.29895Q424.04105 318.23267 424.38354 317.89017Q424.715 317.55872 424.83652 317.1057Q424.95807 316.6306 424.78128 316.2108Q424.61557 315.77988 424.0521 315.21643L421.69873 312.86307L422.439 312.12283L426.8363 316.52014L426.1734 317.18304ZM428.23947 315.11697L423.84216 310.71967L424.50507 310.05673L425.12378 310.67548Q425.00226 310.1341 425.15695 309.60376Q425.30057 309.06238 425.74252 308.62042Q426.22864 308.1343 426.73688 308.0238Q427.25616 307.90228 427.7423 308.14536Q427.51028 306.85266 428.33893 306.02402Q429.00183 305.3611 429.70895 305.3832Q430.41605 305.3832 431.1784 306.14557L434.19464 309.1618L433.4544 309.90207L430.6812 307.12888Q430.23926 306.68695 429.96304 306.5654Q429.69788 306.43283 429.38852 306.4991Q429.07916 306.5654 428.814 306.83057Q428.34998 307.29462 428.34998 307.91333Q428.36102 308.521 429.04602 309.206L431.59824 311.7582L430.84695 312.50952L427.98535 309.64795Q427.4882 309.15076 427.05728 309.09552Q426.6264 309.0182 426.2176 309.42697Q425.8972 309.74738 425.79776 310.17828Q425.6983 310.60916 425.8972 311.05112Q426.09607 311.49304 426.6927 312.0897L428.97974 314.37674L428.23947 315.11697ZM440.9895 302.36697L440.43707 301.81454Q440.6691 302.88623 439.86255 303.69278Q439.3322 304.2231 438.60303 304.3778Q437.86276 304.52142 437.1004 304.2452Q436.33807 303.969 435.6641 303.29504Q435.01224 302.6432 434.69183 301.88083Q434.37143 301.11847 434.53714 300.40033Q434.69183 299.6711 435.23322 299.12973Q435.63095 298.732 436.10605 298.58835Q436.58115 298.44473 437.04517 298.51102L434.86862 296.33444L435.60886 295.5942L441.68555 301.6709L440.9895 302.36697ZM436.4375 302.52164Q437.28824 303.37238 438.06165 303.43866Q438.82397 303.4939 439.31012 303.00778Q439.79626 302.52164 439.74103 301.78137Q439.68576 301.04114 438.8682 300.22354Q437.9622 299.31757 437.1888 299.25128Q436.42645 299.17392 435.9182 299.68216Q435.42105 300.17935 435.49838 300.9196Q435.56467 301.6488 436.4375 302.52164ZM445.41998 296.85373Q445.35367 297.62714 445.1106 298.15747Q444.8786 298.67676 444.43665 299.11868Q443.70746 299.8479 442.9672 299.88104Q442.22693 299.91418 441.6745 299.36176Q441.3541 299.04135 441.23257 298.63254Q441.09998 298.2127 441.1884 297.81497Q441.26572 297.40616 441.4867 297.03052Q441.6303 296.7543 442.02808 296.24606Q442.82355 295.2517 443.09976 294.66614Q442.9451 294.51144 442.91196 294.4783Q442.4479 294.01425 442.05017 294.03635Q441.51984 294.08057 440.95636 294.64404Q440.43707 295.1633 440.3708 295.60526Q440.29346 296.03613 440.63596 296.6217L439.8073 297.2515Q439.44272 296.68802 439.38745 296.16873Q439.3322 295.64944 439.60843 295.06387Q439.88464 294.4783 440.44812 293.91483Q441.0116 293.35135 441.49774 293.13037Q441.98386 292.9094 442.34848 292.94257Q442.71307 292.9757 443.0887 293.21878Q443.3097 293.37344 443.8069 293.87064L444.80124 294.865Q445.8398 295.90356 446.16022 296.1356Q446.49167 296.35657 446.88943 296.46704L446.10498 297.2515Q445.76248 297.12994 445.41998 296.85373ZM443.68533 295.2517Q443.4423 295.82623 442.75726 296.7543Q442.35953 297.28464 442.26007 297.56085Q442.1496 297.82602 442.1938 298.0912Q442.24902 298.34528 442.4479 298.54416Q442.74622 298.84247 443.16608 298.82037Q443.59695 298.78723 444.02786 298.35635Q444.45874 297.92545 444.6024 297.40616Q444.75705 296.87582 444.5803 296.3897Q444.4477 296.01404 443.96155 295.52792L443.68533 295.2517ZM442.82355 290.1031L441.96176 289.2413L442.71307 288.49L443.57486 289.35178L442.82355 290.1031ZM448.03848 295.318L443.64114 290.92065L444.39246 290.16937L448.78976 294.56668L448.03848 295.318ZM450.1377 293.21878L444.061 287.14206L444.8123 286.39078L450.889 292.46747L450.1377 293.21878ZM453.9384 292.79892L453.15396 292.19125Q453.46332 292.01447 453.65112 291.82666Q453.8942 291.5836 453.94943 291.35156Q454.0268 291.11954 453.98257 290.87646Q453.92734 290.68866 453.65112 290.081Q453.60693 290.01468 453.54065 289.83792L447.4529 287.10892L448.25943 286.30237L451.71765 287.9265Q452.38055 288.23587 453.06555 288.6336Q452.67886 287.98175 452.3695 287.31885L450.74536 283.81647L451.48563 283.0762L454.29196 289.2192Q454.7339 290.21356 454.8665 290.6334Q455.04324 291.20792 454.94382 291.63882Q454.8665 292.06973 454.5129 292.42328Q454.303 292.63318 453.9384 292.79892Z" fill-rule="nonzero"/><path fill="#ffffff" d="M443.027 353.91946L436.9503 347.84277L439.24838 345.54468Q439.845 344.94806 440.22067 344.6829Q440.751 344.30722 441.25922 344.21884Q441.7785 344.11942 442.33093 344.31827Q442.8944 344.5061 443.3474 344.9591Q444.1208 345.73248 444.165 346.77106Q444.2092 347.78754 442.9165 349.0802L441.35867 350.63806L443.83353 353.1129L443.027 353.91946ZM440.65155 349.93094L442.22046 348.36206Q443.0049 347.5776 443.03806 346.96994Q443.0712 346.34018 442.54086 345.80984Q442.16522 345.43417 441.70117 345.3679Q441.23712 345.2795 440.8394 345.5005Q440.57422 345.65515 440.03284 346.19653L438.475 347.75436L440.65155 349.93094ZM448.5844 348.36206L444.1871 343.96472L444.86105 343.29077L445.52396 343.95367Q445.31406 343.23553 445.38034 342.88196Q445.44662 342.50632 445.7118 342.24115Q446.08743 341.8655 446.70615 341.71082L447.1481 342.661Q446.70615 342.77148 446.441 343.03665Q446.1869 343.29077 446.1427 343.64432Q446.09848 343.97577 446.28632 344.31827Q446.55148 344.8486 447.01553 345.31265L449.32468 347.6218L448.5844 348.36206ZM453.0149 341.10315L453.87668 340.41815Q454.37384 341.2689 454.25232 342.14172Q454.13077 343.01456 453.36844 343.77692Q452.4072 344.73813 451.23605 344.71603Q450.07596 344.6829 449.00427 343.61118Q447.8994 342.50632 447.86627 341.32413Q447.82205 340.1309 448.72806 339.2249Q449.61194 338.34103 450.761 338.38522Q451.92108 338.41837 453.0149 339.51218Q453.08118 339.57846 453.21375 339.71103L449.93234 342.99246Q450.70572 343.67746 451.45703 343.69955Q452.1973 343.7106 452.74973 343.15817Q453.1585 342.7494 453.23584 342.2522Q453.3132 341.7329 453.0149 341.10315ZM449.36887 342.3406L451.82162 339.88782Q451.21396 339.36853 450.70572 339.32434Q449.91025 339.25806 449.34677 339.82153Q448.82748 340.34082 448.81644 341.03687Q448.81644 341.72186 449.36887 342.3406ZM456.37363 340.5728L451.97632 336.1755L452.63922 335.5126L453.25793 336.13132Q453.1364 335.58994 453.2911 335.0596Q453.43472 334.51822 453.87668 334.0763Q454.3628 333.59015 454.87103 333.47968Q455.39032 333.35812 455.87646 333.6012Q455.64444 332.3085 456.47308 331.4799Q457.136 330.81696 457.84308 330.83905Q458.5502 330.83905 459.31256 331.6014L462.3288 334.61768L461.58856 335.3579L458.81537 332.58472Q458.3734 332.1428 458.0972 332.02124Q457.83203 331.88867 457.52267 331.95496Q457.21332 332.02124 456.94815 332.2864Q456.48413 332.75046 456.48413 333.36917Q456.49518 333.97684 457.18018 334.66187L459.7324 337.21408L458.98108 337.96536L456.1195 335.1038Q455.62234 334.6066 455.19144 334.55136Q454.76056 334.47403 454.35175 334.8828Q454.03134 335.20325 453.93192 335.63412Q453.83246 336.06503 454.03134 336.50696Q454.23022 336.9489 454.82684 337.54553L457.1139 339.83258L456.37363 340.5728ZM458.9369 327.57974L458.0751 326.71796L458.82642 325.96664L459.6882 326.82843L458.9369 327.57974ZM464.15182 332.79465L459.7545 328.39734L460.5058 327.64603L464.9031 332.04337L464.15182 332.79465ZM469.1568 327.78967L468.50494 327.1378Q468.73697 328.4084 467.85306 329.29227Q467.46637 329.67896 466.98022 329.87784Q466.4941 330.05463 466.1074 329.99936Q465.70966 329.93307 465.31192 329.6679Q465.0578 329.5022 464.57166 329.01605L461.8537 326.2981L462.605 325.5468L465.04675 327.98853Q465.62128 328.56305 465.8754 328.7288Q466.22894 328.94977 466.62668 328.90558Q467.02444 328.83926 467.36694 328.49677Q467.6984 328.1653 467.81992 327.7123Q467.94147 327.23724 467.76468 326.81738Q467.59897 326.3865 467.0355 325.82303L464.68213 323.46967L465.4224 322.72943L469.8197 327.12674L469.1568 327.78967ZM471.22287 325.72357L466.82556 321.32626L467.48846 320.66336L468.10718 321.28207Q467.98566 320.7407 468.14032 320.21036Q468.28397 319.66898 468.72592 319.22705Q469.21204 318.7409 469.72028 318.63043Q470.23956 318.50888 470.7257 318.75195Q470.49368 317.45926 471.32233 316.63065Q471.98523 315.9677 472.69232 315.9898Q473.39944 315.9898 474.1618 316.75217L477.17804 319.76843L476.4378 320.50867L473.6646 317.73547Q473.22266 317.29355 472.94644 317.172Q472.68127 317.03943 472.37192 317.1057Q472.06256 317.172 471.7974 317.43716Q471.33337 317.9012 471.33337 318.51993Q471.34442 319.1276 472.02942 319.81262L474.58163 322.36484L473.83032 323.11612L470.96875 320.25455Q470.4716 319.7574 470.04068 319.70212Q469.6098 319.6248 469.201 320.03357Q468.88058 320.354 468.78116 320.78488Q468.6817 321.2158 468.88058 321.6577Q469.07947 322.09967 469.6761 322.6963L471.96313 324.98334L471.22287 325.72357ZM481.12238 315.8241L476.72507 311.42676L477.38797 310.76385L478.00668 311.38257Q477.88516 310.8412 478.03983 310.31085Q478.18347 309.7695 478.6254 309.32755Q479.11154 308.8414 479.61978 308.73093Q480.13904 308.60938 480.62518 308.85245Q480.39316 307.55978 481.2218 306.73114Q481.88474 306.06824 482.59183 306.09033Q483.29895 306.09033 484.06128 306.85266L487.07755 309.86893L486.33728 310.60916L483.5641 307.836Q483.12216 307.39404 482.84595 307.27252Q482.58078 307.13992 482.27142 307.20624Q481.96207 307.27252 481.6969 307.5377Q481.23285 308.0017 481.23285 308.62045Q481.2439 309.22812 481.92892 309.91312L484.48114 312.46533L483.72983 313.21664L480.86826 310.35507Q480.37106 309.85788 479.9402 309.80264Q479.50928 309.72528 479.1005 310.1341Q478.7801 310.4545 478.68063 310.88538Q478.5812 311.31628 478.7801 311.75824Q478.97894 312.20016 479.5756 312.79678L481.86264 315.08383L481.12238 315.8241ZM486.4257 306.12347Q485.19928 304.89706 485.2877 303.63754Q485.36502 302.58792 486.18262 301.77036Q487.0886 300.86435 488.25974 300.88644Q489.43088 300.88644 490.4805 301.93607Q491.33124 302.7868 491.56323 303.52707Q491.79526 304.2673 491.5743 305.0407Q491.35333 305.79202 490.7788 306.36655Q489.8618 307.28357 488.70166 307.27252Q487.54156 307.23938 486.4257 306.12347ZM487.18802 305.3611Q488.0277 306.2008 488.81216 306.25604Q489.60767 306.30023 490.1601 305.7478Q490.72357 305.18433 490.6683 304.3999Q490.61307 303.61545 489.75128 302.75366Q488.9337 301.93607 488.13818 301.89188Q487.35376 301.83664 486.80133 302.38907Q486.2489 302.9415 486.2931 303.73697Q486.33728 304.51038 487.18802 305.3611ZM493.85028 303.09616L489.45297 298.69885L490.11588 298.03592L490.73462 298.65466Q490.5026 297.45035 491.41965 296.53333Q491.81738 296.13556 492.29248 295.94772Q492.7786 295.74887 493.17636 295.81516Q493.5741 295.88144 493.94977 296.1245Q494.1928 296.3013 494.7121 296.8206L497.419 299.52747L496.67874 300.26773L494.005 297.59396Q493.54095 297.12994 493.2316 296.99734Q492.92224 296.86478 492.5687 296.95316Q492.20407 297.0305 491.90576 297.3288Q491.43066 297.80392 491.38647 298.46683Q491.3423 299.10764 492.18198 299.94733L494.59055 302.35593L493.85028 303.09616ZM499.7613 295.85934L500.52365 296.40073Q500.26953 296.7874 500.02646 297.0305Q499.61765 297.4393 499.27515 297.53873Q498.9216 297.6271 498.61224 297.51663Q498.31393 297.3951 497.63995 296.72113L495.10986 294.191L494.56848 294.7324L493.99396 294.15787L494.53534 293.6165L493.44153 292.52267L493.73984 291.34048L495.27557 292.87625L496.0269 292.12494L496.6014 292.69946L495.8501 293.45078L498.4244 296.0251Q498.7448 296.3455 498.86636 296.40073Q498.99893 296.44492 499.14258 296.41177Q499.2862 296.37863 499.45193 296.2129Q499.5845 296.08032 499.7613 295.85934ZM500.9214 296.0251L494.8447 289.94836L495.58493 289.20813L497.7615 291.38467Q497.68417 290.2688 498.47964 289.4733Q498.97684 288.9761 499.52927 288.82144Q500.0817 288.64465 500.5789 288.8325Q501.065 289.00925 501.7169 289.6611L504.5011 292.44534L503.76086 293.1856L500.97662 290.40137Q500.41315 289.8379 499.91595 289.82684Q499.4188 289.8158 498.97684 290.25775Q498.6454 290.5892 498.52386 291.06427Q498.4023 291.51727 498.56805 291.94815Q498.73376 292.35696 499.25305 292.87625L501.66165 295.28482L500.9214 296.0251ZM507.5284 292.7989L506.74396 292.19122Q507.0533 292.01447 507.24115 291.82663Q507.48422 291.58356 507.53946 291.35153Q507.6168 291.11954 507.5726 290.87646Q507.51736 290.68863 507.24115 290.08096Q507.19696 290.01468 507.13068 289.8379L501.0429 287.10892L501.84946 286.30237L505.30765 287.92648Q505.97058 288.23584 506.65558 288.6336Q506.2689 287.98175 505.95953 287.31882L504.3354 283.81644L505.07562 283.07617L507.88196 289.21918Q508.3239 290.21353 508.45648 290.6334Q508.63327 291.20792 508.53384 291.6388Q508.45648 292.0697 508.10294 292.42325Q507.893 292.63318 507.5284 292.7989Z" fill-rule="nonzero"/><path fill="#ffffff" d="M498.03122 352.50525L491.9545 346.42856L494.2526 344.13046Q494.8492 343.53384 495.22488 343.26868Q495.75522 342.89304 496.26343 342.80463Q496.7827 342.7052 497.33514 342.90408Q497.89862 343.0919 498.35162 343.5449Q499.125 344.3183 499.16922 345.35684Q499.2134 346.37332 497.92072 347.666L496.36288 349.22385L498.83774 351.6987L498.03122 352.50525ZM495.65576 348.51672L497.22467 346.94785Q498.00912 346.1634 498.04227 345.55573Q498.0754 344.92596 497.54507 344.39563Q497.16943 344.02 496.70538 343.95367Q496.24133 343.8653 495.8436 344.08627Q495.57843 344.24094 495.03705 344.78232L493.47922 346.34018L495.65576 348.51672ZM503.58862 346.94785L499.1913 342.5505L499.86526 341.87656L500.52817 342.53946Q500.31827 341.82132 500.38455 341.46777Q500.45084 341.0921 500.716 340.82693Q501.09164 340.4513 501.71036 340.2966L502.1523 341.2468Q501.71036 341.35727 501.44522 341.62244Q501.1911 341.87656 501.14688 342.2301Q501.1027 342.56155 501.29053 342.90408Q501.5557 343.4344 502.01974 343.89844L504.3289 346.20758L503.58862 346.94785ZM508.0191 339.68893L508.8809 339.00394Q509.37805 339.85468 509.25653 340.7275Q509.13498 341.60034 508.37265 342.3627Q507.4114 343.3239 506.24026 343.30182Q505.08017 343.26868 504.00848 342.19696Q502.90363 341.0921 502.87048 339.9099Q502.82626 338.71667 503.73227 337.8107Q504.61615 336.92682 505.7652 336.971Q506.9253 337.00415 508.0191 338.09796Q508.0854 338.16425 508.21796 338.2968L504.93655 341.57825Q505.70993 342.26324 506.46124 342.28534Q507.2015 342.2964 507.75394 341.744Q508.16272 341.33517 508.24005 340.83798Q508.3174 340.31873 508.0191 339.68893ZM504.37308 340.9264L506.82584 338.4736Q506.21817 337.9543 505.70993 337.91013Q504.91446 337.84384 504.35098 338.40732Q503.8317 338.9266 503.82065 339.62265Q503.82065 340.30768 504.37308 340.9264ZM511.37784 339.1586L506.98053 334.7613L507.64343 334.0984L508.26215 334.7171Q508.14062 334.17572 508.29532 333.6454Q508.43893 333.104 508.8809 332.66208Q509.367 332.17593 509.87524 332.06546Q510.39453 331.9439 510.88068 332.18698Q510.64865 330.89432 511.4773 330.06567Q512.1402 329.40274 512.8473 329.42484Q513.5544 329.42484 514.3168 330.1872L517.333 333.20346L516.5928 333.9437L513.8196 331.17053Q513.3776 330.72858 513.10144 330.60706Q512.83624 330.47446 512.5269 330.54074Q512.2175 330.60706 511.95236 330.8722Q511.48834 331.33624 511.48834 331.95496Q511.4994 332.56262 512.1844 333.24765L514.73663 335.79987L513.9853 336.55115L511.12372 333.68958Q510.62656 333.1924 510.19565 333.13715Q509.76477 333.0598 509.35596 333.46863Q509.03555 333.78903 508.93613 334.2199Q508.83667 334.65082 509.03555 335.09274Q509.23444 335.5347 509.83105 336.13132L512.1181 338.41837L511.37784 339.1586ZM513.9411 326.16553L513.07935 325.30374L513.8306 324.55243L514.6924 325.4142L513.9411 326.16553ZM519.156 331.38043L514.7587 326.98312L515.51 326.2318L519.90735 330.62915L519.156 331.38043ZM524.161 326.37546L523.50916 325.72357Q523.74115 326.99417 522.8573 327.87805Q522.4706 328.26474 521.98444 328.46362Q521.4983 328.6404 521.11163 328.58514Q520.71387 328.51886 520.3161 328.2537Q520.062 328.08798 519.57587 327.60184L516.8579 324.8839L517.60925 324.1326L520.05096 326.5743Q520.6255 327.14883 520.8796 327.31458Q521.23315 327.53555 521.6309 327.49136Q522.0286 327.42505 522.37115 327.08255Q522.7026 326.7511 522.82416 326.2981Q522.9457 325.82303 522.7689 325.40317Q522.60315 324.9723 522.0397 324.4088L519.68634 322.05548L520.4266 321.31522L524.8239 325.71252L524.161 326.37546ZM526.2271 324.3094L521.8298 319.91205L522.4927 319.24915L523.1114 319.86786Q522.98987 319.32648 523.14453 318.79614Q523.28815 318.25476 523.7301 317.81284Q524.21625 317.3267 524.7245 317.21622Q525.2438 317.09467 525.7299 317.33774Q525.49786 316.04507 526.32654 315.21643Q526.98944 314.5535 527.69653 314.5756Q528.4036 314.5756 529.166 315.33795L532.18225 318.35422L531.442 319.09445L528.6688 316.3213Q528.22687 315.87933 527.9507 315.7578Q527.6855 315.6252 527.37616 315.6915Q527.0668 315.7578 526.80164 316.02298Q526.3376 316.487 526.3376 317.1057Q526.34863 317.71338 527.0336 318.3984L529.5859 320.95062L528.83453 321.7019L525.97296 318.84033Q525.47577 318.34317 525.0449 318.2879Q524.614 318.21057 524.2052 318.6194Q523.8848 318.9398 523.78534 319.37067Q523.6859 319.80157 523.8848 320.2435Q524.0837 320.68546 524.6803 321.28207L526.96735 323.56912L526.2271 324.3094ZM538.4578 310.99588Q538.39154 311.7693 538.1485 312.2996Q537.91644 312.81888 537.4745 313.26083Q536.7453 313.99002 536.00507 314.0232Q535.2648 314.05634 534.71234 313.5039Q534.39197 313.1835 534.27045 312.7747Q534.1378 312.35486 534.22626 311.9571Q534.3036 311.5483 534.52454 311.17267Q534.66815 310.89645 535.0659 310.3882Q535.8614 309.39383 536.13763 308.80826Q535.983 308.6536 535.9498 308.62045Q535.4858 308.1564 535.088 308.1785Q534.5577 308.2227 533.9942 308.78616Q533.4749 309.30545 533.4086 309.7474Q533.3313 310.17828 533.6738 310.76385L532.84515 311.39362Q532.4806 310.83014 532.4253 310.31088Q532.37006 309.7916 532.6463 309.20602Q532.9225 308.62045 533.48596 308.05698Q534.04944 307.4935 534.5356 307.27252Q535.0217 307.05154 535.38635 307.0847Q535.7509 307.11783 536.1266 307.3609Q536.34753 307.5156 536.8447 308.01276L537.8391 309.00714Q538.8777 310.04572 539.19806 310.2777Q539.52954 310.4987 539.9273 310.6092L539.1428 311.39362Q538.80035 311.2721 538.4578 310.99588ZM536.7232 309.39383Q536.48016 309.96835 535.7951 310.89645Q535.3974 311.42676 535.298 311.70297Q535.18744 311.96814 535.2316 312.2333Q535.28687 312.48743 535.4858 312.6863Q535.78406 312.98462 536.2039 312.96252Q536.6348 312.92938 537.06573 312.49847Q537.4966 312.0676 537.64026 311.5483Q537.7949 311.01797 537.61816 310.53183Q537.48553 310.1562 536.9994 309.67004L536.7232 309.39383ZM541.07635 309.46014L536.679 305.0628L537.3419 304.3999L537.96063 305.01862Q537.72864 303.81433 538.6456 302.8973Q539.0434 302.49954 539.5185 302.31174Q540.00464 302.11285 540.40234 302.17914Q540.8001 302.24542 541.1758 302.4885Q541.4188 302.66528 541.9381 303.18457L544.645 305.89145L543.9048 306.6317L541.231 303.95795Q540.76697 303.49393 540.45764 303.36133Q540.14825 303.22876 539.7947 303.31714Q539.4301 303.39447 539.1318 303.69278Q538.6567 304.16788 538.6125 304.83078Q538.5683 305.47162 539.408 306.3113L541.8166 308.71988L541.07635 309.46014ZM546.02606 304.51038L541.6288 300.11307L542.2917 299.45016L542.9104 300.06888Q542.67834 298.86456 543.5954 297.94754Q543.99316 297.5498 544.46826 297.36197Q544.95435 297.16312 545.3521 297.2294Q545.7499 297.2957 546.1255 297.53876Q546.3686 297.7155 546.8879 298.2348L549.5948 300.9417L548.8545 301.68195L546.1808 299.0082Q545.71674 298.54416 545.40735 298.4116Q545.098 298.279 544.74445 298.3674Q544.3798 298.44473 544.08154 298.74304Q543.60645 299.21814 543.56226 299.88104Q543.51807 300.52185 544.3577 301.36154L546.76636 303.77014L546.02606 304.51038ZM553.8595 296.67697L553.20764 296.02512Q553.43964 297.2957 552.5558 298.17957Q552.16907 298.56625 551.6829 298.76514Q551.1968 298.94193 550.8101 298.8867Q550.41235 298.82037 550.0146 298.5552Q549.7605 298.3895 549.27435 297.90335L546.5564 295.18542L547.30774 294.4341L549.74945 296.87582Q550.324 297.45038 550.57806 297.6161Q550.93164 297.83707 551.3294 297.79288Q551.7271 297.72656 552.06964 297.38406Q552.40106 297.0526 552.52264 296.59964Q552.64417 296.12454 552.4674 295.70468Q552.30164 295.2738 551.73816 294.71033L549.3848 292.357L550.12506 291.61673L554.5224 296.01404L553.8595 296.67697ZM558.25684 291.1969Q558.19055 291.97028 557.94745 292.5006Q557.71545 293.0199 557.2735 293.46185Q556.5443 294.19104 555.804 294.22418Q555.0638 294.25732 554.51135 293.7049Q554.191 293.3845 554.0694 292.9757Q553.9368 292.55585 554.0252 292.1581Q554.10254 291.74933 554.32355 291.37366Q554.46716 291.09744 554.8649 290.5892Q555.6604 289.59485 555.93665 289.00928Q555.7819 288.85458 555.7488 288.82144Q555.2847 288.35742 554.887 288.37952Q554.3567 288.4237 553.7932 288.98718Q553.2739 289.50647 553.20764 289.9484Q553.1303 290.3793 553.4728 290.96487L552.64417 291.59464Q552.27954 291.03116 552.2243 290.51187Q552.16907 289.99258 552.4453 289.407Q552.7215 288.82144 553.285 288.25797Q553.84845 287.6945 554.3346 287.47354Q554.82074 287.25256 555.1853 287.2857Q555.5499 287.31885 555.9256 287.56192Q556.14655 287.71658 556.64374 288.21378L557.6381 289.20816Q558.67664 290.2467 558.9971 290.47873Q559.32855 290.6997 559.72626 290.81018L558.94183 291.59464Q558.5993 291.4731 558.25684 291.1969ZM556.5222 289.59485Q556.2791 290.16937 555.5941 291.09744Q555.19635 291.62778 555.0969 291.904Q554.98645 292.16916 555.03064 292.43433Q555.0859 292.68845 555.2847 292.88733Q555.58307 293.18564 556.0029 293.16354Q556.43384 293.13037 556.8647 292.6995Q557.2956 292.2686 557.4392 291.74933Q557.59393 291.219 557.4171 290.73285Q557.28455 290.3572 556.7984 289.87106L556.5222 289.59485ZM560.8532 289.68323L554.77655 283.60654L555.52783 282.85522L561.60455 288.93195L560.8532 289.68323Z" fill-rule="nonzero"/><path stroke="#4285f4" stroke-width="4.0" stroke-linecap="butt" d="M280.0 24.55L292.0 24.55" fill-rule="nonzero"/><path stroke="#ea4335" stroke-width="4.0" stroke-linecap="butt" d="M308.0 24.55L320.0 24.55" fill-rule="nonzero"/></svg>