<?xml version="1.0" encoding="UTF-8"?>
<svg id="Capa_1" data-name="Capa 1" xmlns="http://www.w3.org/2000/svg" viewBox="0 0 130 130">
  <path d="M72.23,23.22c-3.99-3.99-10.47-3.99-14.46,0l-3.43,3.43,8.02,8.02c.84-.23,1.73-.35,2.65-.35,5.65,0,10.23,4.58,10.23,10.23,0,.92-.12,1.8-.35,2.65l10.48,10.48c.84-.23,1.73-.35,2.65-.35,5.65,0,10.23,4.58,10.23,10.23s-4.58,10.23-10.23,10.23-10.23-4.58-10.23-10.23c0-.92,.12-1.8,.35-2.65l-8.02-8.02v24.81c3.06,1.77,5.11,5.07,5.11,8.86,0,5.65-4.58,10.23-10.23,10.23s-10.23-4.58-10.23-10.23c0-3.78,2.06-7.09,5.11-8.86v-28.3c-3.06-1.77-5.11-5.07-5.11-8.86,0-.92,.12-1.8,.35-2.65l-8.02-8.02-23.88,23.88c-3.99,3.99-3.99,10.47,0,14.46l34.55,34.55c3.99,3.99,10.47,3.99,14.46,0l34.55-34.55c3.99-3.99,3.99-10.47,0-14.46L72.23,23.22Zm-21.69-7.23c7.99-7.99,20.94-7.99,28.92,0l34.55,34.55c7.99,7.99,7.99,20.94,0,28.92l-34.55,34.55c-7.99,7.99-20.94,7.99-28.92,0L15.99,79.46c-7.99-7.99-7.99-20.94,0-28.92L50.54,15.99Z" style="fill: #fff; fill-rule: evenodd;"/>
</svg>