<?xml version="1.0" encoding="UTF-8"?>
<svg id="Capa_1" data-name="Capa 1" xmlns="http://www.w3.org/2000/svg" viewBox="0 0 130 130">
  <g id="Page-1">
    <g id="Dribbble-Light-Preview">
      <g id="icons">
        <path id="github-_142_" data-name="github-[#142]" d="M65,10c30.38,0,55,25.24,55,56.39,0,24.91-15.74,46.04-37.58,53.5-2.79,.56-3.78-1.2-3.78-2.71,0-1.86,.07-7.93,.07-15.48,0-5.26-1.76-8.69-3.73-10.44,12.25-1.4,25.12-6.17,25.12-27.82,0-6.16-2.13-11.19-5.66-15.14,.57-1.42,2.46-7.16-.54-14.93,0,0-4.61-1.51-15.11,5.78-4.39-1.25-9.1-1.88-13.78-1.9-4.67,.02-9.38,.65-13.77,1.9-10.51-7.29-15.13-5.78-15.13-5.78-2.99,7.77-1.1,13.5-.53,14.93-3.51,3.95-5.66,8.98-5.66,15.14,0,21.61,12.84,26.44,25.06,27.87-1.57,1.41-3,3.89-3.49,7.54-3.13,1.44-11.1,3.93-16-4.68,0,0-2.91-5.42-8.43-5.81,0,0-5.36-.07-.37,3.43,0,0,3.6,1.73,6.1,8.25,0,0,3.23,10.07,18.53,6.65,.03,4.71,.08,9.16,.08,10.5,0,1.49-1.01,3.24-3.76,2.71-21.86-7.45-37.61-28.59-37.61-53.51,0-31.15,24.63-56.39,55-56.39" style="fill: #fff; fill-rule: evenodd;"/>
      </g>
    </g>
  </g>
</svg>