<?xml version="1.0" encoding="UTF-8"?>
<svg id="Capa_1" data-name="Capa 1" xmlns="http://www.w3.org/2000/svg" viewBox="0 0 143.5 130">
  <path d="M52.91,10c-3.91,0-7.53,2.08-9.5,5.46L8.23,75.76c-2.12,3.63-1.98,8.15,.35,11.64l18.46,27.69c2.04,3.06,5.47,4.9,9.15,4.9H107.31c3.68,0,7.11-1.84,9.15-4.9l18.46-27.69c2.33-3.5,2.47-8.01,.35-11.64L100.09,15.46c-1.97-3.38-5.59-5.46-9.5-5.46H52.91Zm6.76,11h30.92l32.08,55h-28.63L59.67,21Zm21.4,55l-9.83-15.73-9.17,15.73h19Zm-25.42,11l-12.83,22H107.31l14.67-22H55.66Zm9-37.26l-31.72,54.38-15.21-22.81L49.91,26.14l14.75,23.6Z" style="fill: #fff; fill-rule: evenodd;"/>
</svg>