<?xml version="1.0" encoding="UTF-8"?>
<svg id="Capa_1" data-name="Capa 1" xmlns="http://www.w3.org/2000/svg" viewBox="0 0 143.5 130">
  <path d="M38.39,100.87h-4.96c-.18-8.37-.66-16.24-1.45-23.61h-.04l-7.55,23.61h-3.77l-7.5-23.61h-.04c-.56,7.08-.91,14.95-1.05,23.61H7.5c.29-10.53,1.02-20.41,2.19-29.62h6.15l7.15,21.77h.04l7.2-21.77h5.88c1.29,10.8,2.05,20.67,2.28,29.62m21.5-21.86c-2.02,10.95-4.68,18.91-7.99,23.88-2.58,3.82-5.4,5.74-8.47,5.74-.82,0-1.83-.25-3.03-.74v-2.64c.59,.08,1.27,.13,2.06,.13,1.44,0,2.59-.39,3.47-1.19,1.05-.96,1.58-2.05,1.58-3.25,0-.82-.41-2.5-1.23-5.05l-5.44-16.9h4.87l3.91,12.64c.88,2.87,1.24,4.87,1.1,6.01,2.14-5.7,3.63-11.92,4.48-18.65h4.7Z" style="fill: #fff;"/>
  <path d="M125.9,100.87h-14.08v-29.62h4.74v25.98h9.35v3.65Zm-17.77,.72l-5.45-2.69c.48-.4,.94-.83,1.36-1.32,2.31-2.72,3.47-6.74,3.47-12.07,0-9.8-3.85-14.7-11.54-14.7-3.77,0-6.72,1.24-8.82,3.73-2.31,2.72-3.47,6.73-3.47,12.03s1.02,9.03,3.07,11.45c1.87,2.2,4.7,3.29,8.47,3.29,1.41,0,2.7-.17,3.88-.52l7.09,4.13,1.93-3.33Zm-17.64-6.64c-1.2-1.93-1.8-5.03-1.8-9.3,0-7.46,2.27-11.19,6.8-11.19,2.37,0,4.11,.89,5.22,2.68,1.2,1.93,1.8,5,1.8,9.22,0,7.52-2.27,11.28-6.8,11.28-2.37,0-4.11-.89-5.22-2.68m-8.87-2.28c0,2.51-.92,4.57-2.76,6.19-1.84,1.61-4.32,2.41-7.41,2.41-2.9,0-5.71-.93-8.43-2.77l1.27-2.54c2.34,1.17,4.46,1.75,6.36,1.75,1.78,0,3.18-.4,4.19-1.18,1.01-.79,1.61-1.89,1.61-3.29,0-1.76-1.23-3.26-3.48-4.52-2.08-1.14-6.23-3.52-6.23-3.52-2.25-1.64-3.38-3.4-3.38-6.3,0-2.4,.84-4.34,2.52-5.81,1.68-1.48,3.86-2.22,6.52-2.22s5.25,.74,7.5,2.2l-1.14,2.54c-1.93-.82-3.83-1.23-5.7-1.23-1.52,0-2.69,.37-3.51,1.1-.82,.73-1.33,1.66-1.33,2.81,0,1.75,1.25,3.27,3.57,4.56,2.1,1.14,6.36,3.57,6.36,3.57,2.31,1.64,3.46,3.38,3.46,6.26" style="fill: #fff;"/>
  <path d="M131.84,61.32c-2.86-.07-5.08,.22-6.94,1-.54,.21-1.39,.21-1.47,.89,.29,.29,.32,.75,.58,1.15,.43,.72,1.18,1.68,1.86,2.18,.75,.57,1.5,1.14,2.29,1.65,1.39,.86,2.97,1.36,4.33,2.22,.79,.5,1.58,1.14,2.37,1.68,.39,.29,.64,.75,1.14,.93v-.11c-.25-.32-.32-.79-.57-1.15l-1.07-1.04c-1.04-1.4-2.33-2.61-3.72-3.61-1.15-.79-3.65-1.86-4.12-3.18l-.07-.07c.79-.07,1.72-.36,2.47-.58,1.22-.32,2.33-.25,3.58-.57,.57-.14,1.14-.32,1.72-.5v-.32c-.65-.64-1.11-1.5-1.79-2.11-1.82-1.57-3.83-3.11-5.91-4.4-1.11-.72-2.54-1.18-3.72-1.79-.43-.22-1.14-.32-1.4-.68-.64-.79-1-1.82-1.47-2.76-1.03-1.97-2.04-4.15-2.93-6.23-.65-1.4-1.04-2.79-1.83-4.08-3.69-6.08-7.69-9.77-13.85-13.39-1.32-.75-2.9-1.07-4.58-1.47l-2.69-.14c-.57-.25-1.15-.93-1.65-1.25-2.04-1.29-7.3-4.08-8.8-.39-.97,2.33,1.43,4.62,2.26,5.8,.61,.82,1.4,1.75,1.82,2.68,.25,.61,.32,1.25,.57,1.9,.57,1.58,1.11,3.33,1.86,4.8,.39,.75,.82,1.54,1.32,2.22,.29,.4,.79,.57,.9,1.22-.5,.71-.54,1.79-.82,2.68-1.29,4.04-.78,9.05,1.04,12.03,.57,.89,1.93,2.86,3.76,2.11,1.61-.64,1.26-2.68,1.72-4.47,.11-.43,.04-.72,.25-1v.07c.5,1,1,1.97,1.47,2.97,1.11,1.75,3.04,3.58,4.65,4.79,.86,.65,1.54,1.76,2.61,2.15v-.11h-.07c-.22-.32-.54-.46-.82-.71-.65-.64-1.36-1.43-1.86-2.15-1.5-2.01-2.83-4.23-4.01-6.52-.58-1.11-1.07-2.33-1.54-3.44-.22-.43-.22-1.07-.58-1.29-.54,.79-1.32,1.47-1.72,2.43-.68,1.54-.75,3.44-1.01,5.41l-.14,.07c-1.14-.29-1.54-1.47-1.97-2.47-1.07-2.54-1.25-6.62-.32-9.56,.25-.75,1.33-3.11,.9-3.83-.22-.69-.93-1.07-1.33-1.61-.46-.68-.97-1.54-1.29-2.29-.86-2-1.29-4.22-2.22-6.23-.43-.93-1.18-1.9-1.79-2.76-.68-.97-1.43-1.65-1.97-2.79-.18-.39-.43-1.04-.14-1.47,.07-.29,.22-.39,.5-.47,.46-.39,1.79,.11,2.25,.32,1.33,.54,2.44,1.04,3.54,1.79,.5,.36,1.04,1.04,1.68,1.22h.75c1.14,.25,2.43,.07,3.51,.39,1.9,.61,3.61,1.5,5.15,2.47,4.69,2.97,8.55,7.2,11.16,12.24,.43,.82,.61,1.58,1,2.43,.75,1.76,1.69,3.54,2.43,5.26,.75,1.68,1.47,3.4,2.54,4.8,.54,.75,2.69,1.14,3.65,1.54,.71,.32,1.83,.61,2.47,1,1.22,.75,2.43,1.61,3.58,2.44,.57,.43,2.36,1.32,2.47,2.04m-36.51-31.1c-.49,0-.99,.06-1.46,.18v.07h.07c.29,.57,.79,.97,1.15,1.47,.29,.57,.54,1.14,.82,1.72l.07-.07c.5-.36,.76-.93,.76-1.79-.22-.25-.25-.5-.43-.75-.21-.36-.68-.54-.96-.82" style="fill: #fff;"/>
  <path d="M135.25,100.86h.74v-3.63h-1.11l-.91,2.48-.99-2.48h-1.07v3.63h.7v-2.76h.04l1.03,2.76h.53l1.03-2.76v2.76h0Zm-5.97,0h.78v-3.01h1.03v-.62h-2.88v.62h1.07v3.01s0,0,0,0Z" style="fill: #fff;"/>
</svg>