<?xml version="1.0" encoding="UTF-8"?>
<svg id="Capa_1" data-name="Capa 1" xmlns="http://www.w3.org/2000/svg" viewBox="0 0 211.35 130">
  <path d="M119.83,55.75c1.01,0,2,.14,2.96,.43,.93,.32,1.42,.72,1.42,1.22,0,.26-.09,.52-.26,.75-.12,.23-.38,.41-.64,.41-.38-.12-.75-.26-1.13-.43-.72-.32-1.51-.49-2.32-.46-.84-.03-1.71,.17-2.44,.61-.64,.43-.99,1.19-.93,1.97-.03,.72,.26,1.42,.81,1.88,.61,.49,1.3,.9,2.06,1.13,.81,.29,1.62,.61,2.44,.99,.81,.41,1.51,1.01,2.03,1.77,.58,.93,.87,2,.84,3.1,0,1.71-.49,3.02-1.51,3.89-1.1,.93-2.52,1.39-3.97,1.3-1.3,.03-2.61-.29-3.74-.93-1.04-.7-1.57-1.3-1.57-1.91,0-.29,.12-.55,.29-.78,.14-.2,.35-.35,.61-.38,.23,.03,.43,.14,.58,.32,.23,.2,.46,.43,.72,.7,.35,.32,.75,.55,1.19,.7,.58,.23,1.22,.32,1.83,.32,.93,.06,1.83-.23,2.55-.78,.64-.58,.99-1.45,.93-2.32,.03-.84-.26-1.62-.84-2.23-.58-.58-1.28-1.01-2.06-1.3-.81-.29-1.59-.61-2.44-.96-.81-.35-1.51-.87-2.06-1.57-.58-.78-.9-1.74-.84-2.73-.03-.78,.14-1.57,.49-2.29,.29-.61,.75-1.1,1.33-1.45,.55-.32,1.13-.55,1.74-.72,.64-.14,1.28-.23,1.91-.23Zm-14.85,1.36c.99,.87,1.48,2.26,1.48,4.12v7.51c0,1.88-.49,3.25-1.48,4.12-2.32,1.77-5.51,1.77-7.83,0-.96-.87-1.45-2.23-1.45-4.12v-7.51c0-1.88,.49-3.25,1.45-4.12,2.32-1.74,5.51-1.74,7.83,0Zm71.65-1.3c.7,0,1.13,.23,1.28,.72l5.13,16.53v.14c0,.26-.17,.49-.41,.61-.26,.17-.58,.26-.93,.23-.32,.03-.64-.14-.75-.46l-1.1-3.65h-6.55l-1.1,3.65c-.09,.32-.43,.52-.75,.49-.29,0-.58-.09-.84-.26-.26-.12-.41-.35-.41-.64,0-.06,.03-.14,.06-.2l5.1-16.44c.14-.49,.58-.72,1.28-.72Zm-25.86,0c.67,0,1.22,.43,1.68,1.33l3.91,7.51,3.94-7.51c.49-.87,1.04-1.33,1.68-1.33,.49-.09,.96,.26,1.04,.75,.03,.09,.03,.17,0,.26v16.44c0,.23-.12,.43-.32,.55-.46,.26-1.01,.26-1.48,0-.2-.12-.32-.32-.32-.55v-13.08l-3.77,7.07c-.12,.35-.43,.61-.81,.61-.35-.03-.67-.26-.78-.61l-3.77-7.22v13.22c0,.23-.12,.43-.32,.55-.2,.14-.46,.23-.7,.23-.26,0-.52-.06-.72-.2-.23-.09-.38-.32-.35-.55v-16.44c-.09-.49,.26-.96,.75-1.04,.12-.03,.23-.03,.32,0Zm40.53-.03c.32,0,.64,.12,.9,.32,.29,.29,.55,.64,.7,1.01l6.23,12.18v-12.79c0-.23,.12-.43,.32-.52,.46-.26,1.01-.26,1.48,0,.2,.12,.32,.32,.32,.52v16.79c0,.23-.12,.43-.32,.55-.23,.14-.46,.2-.72,.2-.58-.03-1.1-.41-1.3-.96l-6.55-12.55v12.76c0,.23-.12,.43-.29,.55-.46,.26-1.01,.26-1.48,0-.2-.12-.32-.32-.32-.55v-16.79c0-.49,.35-.72,1.04-.72Zm-112.93,0h4.73c1.39-.06,2.78,.41,3.86,1.3,.96,.87,1.45,2.23,1.45,4.09v.23c0,1.86-.49,3.25-1.48,4.12-1.1,.9-2.49,1.39-3.91,1.3h-3.36v6.47c0,.23-.12,.43-.32,.55-.46,.26-1.01,.26-1.48,0-.2-.12-.32-.32-.32-.55v-16.79c0-.2,.09-.38,.23-.52,.17-.14,.38-.23,.61-.2Zm63.44,0c.23,0,.43,.09,.55,.29,.14,.17,.2,.41,.2,.64s-.06,.49-.2,.7c-.12,.2-.32,.29-.55,.29h-3.97v15.6c0,.23-.12,.43-.32,.55-.46,.26-1.01,.26-1.48,0-.2-.12-.32-.32-.32-.55v-15.6h-4.03c-.23,0-.43-.09-.55-.29-.14-.2-.23-.43-.23-.7,0-.23,.06-.46,.2-.64,.12-.2,.32-.29,.55-.29h10.15Zm-40.71,1.88c-2.17,0-3.25,1.16-3.25,3.54l-.03,7.54c0,2.35,1.07,3.54,3.28,3.54,.9,.06,1.77-.26,2.44-.87,.64-.72,.93-1.68,.87-2.67v-7.54c.09-.96-.23-1.91-.87-2.67-.67-.61-1.54-.93-2.44-.87Zm75.53,1.19l-2.81,9.34h5.6l-2.78-9.34Zm-93.62-1.16h-3.36l-.03,7.39h3.39c.9,.06,1.8-.26,2.44-.9,.64-.72,.96-1.68,.87-2.67v-.29c.09-.96-.23-1.91-.87-2.67-.67-.61-1.54-.93-2.44-.87Z" style="fill: #fff;"/>
  <path d="M42.82,36.24c-15.86-2.03-30.44,9.19-32.47,25.05-2.03,15.86,9.19,30.42,25.05,32.47,15.89,2.03,30.42-9.19,32.47-25.08,2.03-15.89-9.19-30.42-25.05-32.45Zm13.54,18.5c-.29,.29-.61,.55-.96,.75-.08,.03-.13,.05-.16,.05-.73,.43-1.59,.67-2.45,.67-.69,0-1.36-.14-1.96-.4,.19,.46,.29,.96,.27,1.47-.06,3.22-3.71,7.31-10.03,13.28-.01,0-.02,.02-.03,.03l-.2,.17c-3.07,2.7-7.25,5.39-12.44,7.97l.49,2.06c.09,.38-.09,.78-.43,.99-.04,.02-.07,.03-.11,.04,.05,.08,.06,.16,.02,.25-.06,.12-.14,.17-.26,.17l-5.94-.41c-.43-.03-.72-.41-.7-.84,.03-.17,.09-.35,.23-.46l2.49-2.49s.07-.03,.1-.04l9.24-9.24s0-.04,.02-.05l1.04-1.04,1.09-1.09-4.36,.94c-.06,0-.12,.03-.17,.03-.43,0-.75-.35-.75-.78,0-.2,.09-.41,.23-.55l2.96-2.96s.03,0,.04-.01c0-.01,0-.03,.02-.04,9.81-9.81,12.57-11.01,14.61-9.9-.29-.63-.46-1.33-.46-2.07,0-2.75,2.23-4.99,4.99-4.99,1.28,0,2.52,.49,3.45,1.39l.09,.06c1.94,1.94,1.94,5.07,.03,7.05Z" style="fill: #fff;"/>
</svg>